<svg width="77" height="77" viewBox="0 0 77 77" fill="none" xmlns="http://www.w3.org/2000/svg">
<g clip-path="url(#clip0_225_4317)">
<path d="M51.3337 51.3334C51.3337 52.1843 50.9956 53.0004 50.394 53.602C49.7923 54.2037 48.9762 54.5417 48.1253 54.5417H41.7087V60.9584C41.7087 61.8093 41.3706 62.6254 40.769 63.227C40.1673 63.8287 39.3512 64.1667 38.5003 64.1667C37.6494 64.1667 36.8334 63.8287 36.2317 63.227C35.63 62.6254 35.292 61.8093 35.292 60.9584V54.5417H28.8753C28.0244 54.5417 27.2084 54.2037 26.6067 53.602C26.005 53.0004 25.667 52.1843 25.667 51.3334C25.667 50.4825 26.005 49.6665 26.6067 49.0648C27.2084 48.4631 28.0244 48.1251 28.8753 48.1251H35.292V41.7084C35.292 40.8575 35.63 40.0415 36.2317 39.4398C36.8334 38.8381 37.6494 38.5001 38.5003 38.5001C39.3512 38.5001 40.1673 38.8381 40.769 39.4398C41.3706 40.0415 41.7087 40.8575 41.7087 41.7084V48.1251H48.1253C48.9762 48.1251 49.7923 48.4631 50.394 49.0648C50.9956 49.6665 51.3337 50.4825 51.3337 51.3334ZM70.5837 33.6395V60.9584C70.5786 65.2114 68.8868 69.2887 65.8795 72.296C62.8722 75.3033 58.7949 76.995 54.542 77.0001H22.4587C18.2057 76.995 14.1284 75.3033 11.1211 72.296C8.11382 69.2887 6.42209 65.2114 6.41699 60.9584V16.0417C6.42209 11.7888 8.11382 7.71149 11.1211 4.7042C14.1284 1.6969 18.2057 0.00516832 22.4587 7.39478e-05H36.9443C39.8947 -0.00751994 42.8174 0.569835 45.5433 1.69876C48.2693 2.82768 50.7444 4.48577 52.8255 6.57716L64.0034 17.7614C66.096 19.8412 67.7551 22.3155 68.8846 25.041C70.0141 27.7666 70.5917 30.6891 70.5837 33.6395ZM48.289 11.1137C47.2792 10.1357 46.1456 9.29437 44.917 8.61124V22.4584C44.917 23.3093 45.255 24.1254 45.8567 24.727C46.4584 25.3287 47.2744 25.6667 48.1253 25.6667H61.9725C61.289 24.4386 60.4465 23.3059 59.4668 22.298L48.289 11.1137ZM64.167 33.6395C64.167 33.1101 64.0643 32.6032 64.0162 32.0834H48.1253C45.5726 32.0834 43.1245 31.0693 41.3194 29.2643C39.5144 27.4593 38.5003 25.0111 38.5003 22.4584V6.56753C37.9806 6.51941 37.4705 6.41674 36.9443 6.41674H22.4587C19.906 6.41674 17.4578 7.4308 15.6528 9.23584C13.8477 11.0409 12.8337 13.489 12.8337 16.0417V60.9584C12.8337 63.5111 13.8477 65.9593 15.6528 67.7643C17.4578 69.5694 19.906 70.5834 22.4587 70.5834H54.542C57.0947 70.5834 59.5429 69.5694 61.3479 67.7643C63.1529 65.9593 64.167 63.5111 64.167 60.9584V33.6395Z" fill="#8B2AE1"/>
</g>
<defs>
<clipPath id="clip0_225_4317">
<rect width="77" height="77" fill="white"/>
</clipPath>
</defs>
</svg>
