<svg width="18" height="18" viewBox="0 0 18 18" fill="none" xmlns="http://www.w3.org/2000/svg">
<g clip-path="url(#clip0_1093_3538)">
<path d="M18 9C18 7.21997 17.4722 5.47991 16.4832 3.99987C15.4943 2.51983 14.0887 1.36628 12.4442 0.685088C10.7996 0.00389926 8.99002 -0.174331 7.24419 0.172936C5.49836 0.520203 3.89471 1.37737 2.63604 2.63604C1.37736 3.89471 0.520199 5.49836 0.172931 7.24419C-0.174336 8.99002 0.00389433 10.7996 0.685083 12.4442C1.36627 14.0887 2.51982 15.4943 3.99987 16.4832C5.47991 17.4722 7.21997 18 9 18C11.3862 17.9974 13.6738 17.0484 15.3611 15.3611C17.0484 13.6738 17.9974 11.3862 18 9V9ZM1.5 9C1.5 7.51664 1.93987 6.0666 2.76398 4.83323C3.58809 3.59986 4.75943 2.63856 6.12987 2.07091C7.50032 1.50325 9.00832 1.35472 10.4632 1.64411C11.918 1.9335 13.2544 2.64781 14.3033 3.6967C15.3522 4.7456 16.0665 6.08197 16.3559 7.53683C16.6453 8.99168 16.4968 10.4997 15.9291 11.8701C15.3614 13.2406 14.4001 14.4119 13.1668 15.236C11.9334 16.0601 10.4834 16.5 9 16.5C7.01154 16.4978 5.10516 15.7069 3.69911 14.3009C2.29306 12.8948 1.50218 10.9885 1.5 9ZM9 12.75C8.80109 12.75 8.61032 12.671 8.46967 12.5303C8.32902 12.3897 8.25 12.1989 8.25 12L8.25 9.75L6 9.75C5.80109 9.75 5.61032 9.67099 5.46967 9.53033C5.32902 9.38968 5.25 9.19892 5.25 9C5.25 8.80109 5.32902 8.61033 5.46967 8.46967C5.61032 8.32902 5.80109 8.25 6 8.25L8.25 8.25L8.25 6C8.25 5.80109 8.32902 5.61033 8.46967 5.46967C8.61032 5.32902 8.80109 5.25 9 5.25C9.19891 5.25 9.38968 5.32902 9.53033 5.46967C9.67098 5.61033 9.75 5.80109 9.75 6L9.75 8.25L12 8.25C12.1989 8.25 12.3897 8.32902 12.5303 8.46967C12.671 8.61033 12.75 8.80109 12.75 9C12.75 9.19892 12.671 9.38968 12.5303 9.53033C12.3897 9.67099 12.1989 9.75 12 9.75L9.75 9.75L9.75 12C9.75 12.1989 9.67098 12.3897 9.53033 12.5303C9.38968 12.671 9.19891 12.75 9 12.75Z" fill="white"/>
</g>
<defs>
<clipPath id="clip0_1093_3538">
<rect width="18" height="18" fill="white" transform="translate(18) rotate(90)"/>
</clipPath>
</defs>
</svg>
