<svg width="21" height="20" viewBox="0 0 21 20" fill="none" xmlns="http://www.w3.org/2000/svg">
<path d="M15.7756 8.04281C15.8577 6.9692 15.6954 5.8914 15.2998 4.88264C14.9043 3.87388 14.2847 2.95779 13.4831 2.19664C12.6815 1.43549 11.7168 0.847106 10.6545 0.47147C9.59222 0.0958333 8.45721 -0.0582521 7.32662 0.0196839C5.32311 0.236955 3.47238 1.1423 2.12293 2.56524C0.773491 3.98817 0.0184523 5.83051 0 7.74532V11.9452C0 14.0552 1.32246 15.0001 2.63263 15.0001H7.63463C9.65194 14.9836 11.5932 14.2671 13.0928 12.9856C14.5923 11.7041 15.5465 9.94611 15.7756 8.04281ZM12.2417 3.37626C12.8647 3.96917 13.3464 4.68223 13.654 5.4672C13.9616 6.25217 14.0881 7.09073 14.0249 7.92615C13.8376 9.4125 13.0846 10.7826 11.9077 11.7785C10.7307 12.7744 9.21104 13.3274 7.63463 13.3335H2.63263C1.81827 13.3335 1.75509 12.271 1.75509 11.9452V7.74532C1.76241 6.249 2.34537 4.80681 3.39427 3.69015C4.44317 2.57349 5.88568 1.85936 7.45035 1.68214C7.59602 1.67214 7.74169 1.66714 7.88737 1.66714C8.69582 1.66643 9.4965 1.817 10.2436 2.11026C10.9908 2.40352 11.6698 2.83372 12.2417 3.37626Z" fill="#8B2AE1"/>
<path d="M21.0002 13.3335V17.5001C21.0002 18.1631 20.7228 18.799 20.2291 19.2678C19.7354 19.7366 19.0658 20 18.3676 20H13.9798C12.7487 19.9988 11.5396 19.6902 10.4737 19.1052C9.40788 18.5201 8.52278 17.6792 7.90723 16.6668C8.56878 16.6623 9.22808 16.593 9.87468 16.4601C10.3671 17.0448 10.9918 17.5168 11.7024 17.841C12.413 18.1653 13.1914 18.3336 13.9798 18.3334H18.3676C18.6003 18.3334 18.8235 18.2456 18.9881 18.0893C19.1526 17.933 19.2451 17.7211 19.2451 17.5001V13.3335C19.2449 12.5846 19.0671 11.8453 18.725 11.1704C18.3829 10.4956 17.8852 9.90255 17.2689 9.43527C17.41 8.82139 17.4841 8.19531 17.49 7.56699C18.5562 8.15152 19.4417 8.992 20.0578 10.0041C20.6739 11.0163 20.9989 12.1645 21.0002 13.3335Z" fill="#8B2AE1"/>
</svg>
