<svg width="22" height="22" viewBox="0 0 22 22" fill="none" xmlns="http://www.w3.org/2000/svg">
<path d="M10.0447 4.08714C10.3353 3.14796 11.6647 3.14796 11.9553 4.08714L13.0272 7.55094C13.1568 7.96976 13.5441 8.25532 13.9825 8.25532H17.551C18.5079 8.25532 18.9183 9.47001 18.1575 10.0504L15.1879 12.3158C14.8544 12.5702 14.7151 13.0058 14.8392 13.4065L15.9534 17.0073C16.2412 17.9373 15.1656 18.6884 14.3916 18.098L11.6065 15.9733C11.2483 15.7001 10.7517 15.7001 10.3935 15.9733L7.60842 18.098C6.83445 18.6884 5.75881 17.9373 6.04658 17.0073L7.16085 13.4065C7.28485 13.0058 7.14558 12.5702 6.81207 12.3158L3.84248 10.0504C3.0817 9.47001 3.49213 8.25532 4.449 8.25532H8.01752C8.45594 8.25532 8.84323 7.96976 8.97283 7.55094L10.0447 4.08714Z" fill="black"/>
<circle cx="11" cy="11" r="10" stroke="black" stroke-width="2"/>
<line x1="3.6928" y1="19.0929" x2="17.9928" y2="4.79288" stroke="black" stroke-width="2"/>
</svg>
