<svg width="21" height="21" viewBox="0 0 21 21" fill="none" xmlns="http://www.w3.org/2000/svg">
<g clip-path="url(#clip0_217_1815)">
<path d="M19.7353 11.9542L18.0728 5.97272C17.5855 4.22039 16.5265 2.68122 15.064 1.59988C13.6015 0.518544 11.8195 -0.0429136 10.0013 0.00475648C8.18313 0.0524266 6.43304 0.706489 5.02923 1.86298C3.62543 3.01947 2.64848 4.61201 2.25368 6.38747L0.966554 12.1756C0.82438 12.8152 0.827667 13.4785 0.976173 14.1166C1.12468 14.7548 1.41461 15.3514 1.82456 15.8625C2.23452 16.3735 2.75402 16.786 3.34473 17.0694C3.93543 17.3529 4.58225 17.5 5.23743 17.5H6.21218C6.413 18.489 6.94957 19.3781 7.73095 20.0168C8.51234 20.6555 9.49049 21.0044 10.4997 21.0044C11.5089 21.0044 12.487 20.6555 13.2684 20.0168C14.0498 19.3781 14.5864 18.489 14.7872 17.5H15.5204C16.1949 17.5 16.8602 17.3441 17.4645 17.0445C18.0687 16.7448 18.5955 16.3095 19.0036 15.7726C19.4118 15.2357 19.6903 14.6116 19.8174 13.9493C19.9445 13.2869 19.9167 12.6041 19.7362 11.9542H19.7353ZM10.4997 19.25C9.9587 19.2477 9.43163 19.0784 8.99057 18.7651C8.54951 18.4519 8.216 18.01 8.03568 17.5H12.9637C12.7834 18.01 12.4499 18.4519 12.0088 18.7651C11.5677 19.0784 11.0407 19.2477 10.4997 19.25ZM17.6099 14.7131C17.3661 15.0366 17.0502 15.2987 16.6873 15.4787C16.3245 15.6587 15.9246 15.7516 15.5196 15.75H5.23743C4.84437 15.7499 4.45633 15.6616 4.10198 15.4915C3.74762 15.3214 3.43598 15.0739 3.19007 14.7673C2.94416 14.4606 2.77024 14.1027 2.68117 13.7198C2.5921 13.337 2.59013 12.939 2.67543 12.5553L3.96168 6.76635C4.27174 5.37178 5.03907 4.12088 6.1417 3.21249C7.24433 2.30411 8.61898 1.79037 10.0471 1.75296C11.4752 1.71555 12.8749 2.1566 14.0236 3.00601C15.1723 3.85542 16.004 5.06443 16.3867 6.44085L18.0492 12.4223C18.159 12.812 18.1765 13.222 18.1003 13.6196C18.024 14.0173 17.8561 14.3917 17.6099 14.7131Z" fill="black"/>
</g>
<defs>
<clipPath id="clip0_217_1815">
<rect width="21" height="21" fill="white"/>
</clipPath>
</defs>
</svg>
