<svg width="22" height="22" viewBox="0 0 22 22" fill="none" xmlns="http://www.w3.org/2000/svg">
<path d="M10.9999 1.8335C16.0625 1.8335 20.1666 5.93755 20.1666 11.0002C20.1666 16.0627 16.0625 20.1668 10.9999 20.1668H3.66659C2.65406 20.1668 1.83325 19.346 1.83325 18.3335V11.0002C1.83325 5.93755 5.93731 1.8335 10.9999 1.8335ZM10.9999 3.66683C6.94983 3.66683 3.66659 6.95007 3.66659 11.0002V18.3335H10.9999C15.05 18.3335 18.3333 15.0503 18.3333 11.0002C18.3333 6.95007 15.05 3.66683 10.9999 3.66683ZM10.9999 12.8335C11.5062 12.8335 11.9166 13.2439 11.9166 13.7502C11.9166 14.2203 11.5627 14.6077 11.1068 14.6607L10.9999 14.6668H8.24992C7.74366 14.6668 7.33325 14.2564 7.33325 13.7502C7.33325 13.2801 7.68713 12.8926 8.14302 12.8397L8.24992 12.8335H10.9999ZM13.7499 9.16683C14.2562 9.16683 14.6666 9.57722 14.6666 10.0835C14.6666 10.5898 14.2562 11.0002 13.7499 11.0002H8.24992C7.74366 11.0002 7.33325 10.5898 7.33325 10.0835C7.33325 9.57722 7.74366 9.16683 8.24992 9.16683H13.7499Z" fill="white"/>
</svg>
