<svg width="21" height="20" viewBox="0 0 21 20" fill="none" xmlns="http://www.w3.org/2000/svg">
<path d="M16.625 3.33333H15.6625C15.4594 2.39284 14.9221 1.54779 14.1411 0.940598C13.3601 0.333408 12.3832 0.0012121 11.375 0L9.625 0C8.61682 0.0012121 7.6399 0.333408 6.85891 0.940598C6.07791 1.54779 5.54058 2.39284 5.3375 3.33333H4.375C3.2151 3.33466 2.10311 3.77407 1.28294 4.55518C0.462772 5.3363 0.00138938 6.39534 0 7.5L0 15.8333C0.00138938 16.938 0.462772 17.997 1.28294 18.7782C2.10311 19.5593 3.2151 19.9987 4.375 20H16.625C17.7849 19.9987 18.8969 19.5593 19.7171 18.7782C20.5372 17.997 20.9986 16.938 21 15.8333V7.5C20.9986 6.39534 20.5372 5.3363 19.7171 4.55518C18.8969 3.77407 17.7849 3.33466 16.625 3.33333ZM9.625 1.66667H11.375C11.916 1.6688 12.4431 1.83007 12.8841 2.12841C13.3252 2.42674 13.6587 2.84758 13.839 3.33333H7.161C7.34132 2.84758 7.67483 2.42674 8.11589 2.12841C8.55695 1.83007 9.08402 1.6688 9.625 1.66667ZM4.375 5H16.625C17.3212 5 17.9889 5.26339 18.4812 5.73223C18.9734 6.20107 19.25 6.83696 19.25 7.5V10H1.75V7.5C1.75 6.83696 2.02656 6.20107 2.51884 5.73223C3.01113 5.26339 3.67881 5 4.375 5ZM16.625 18.3333H4.375C3.67881 18.3333 3.01113 18.0699 2.51884 17.6011C2.02656 17.1323 1.75 16.4964 1.75 15.8333V11.6667H9.625V12.5C9.625 12.721 9.71719 12.933 9.88128 13.0893C10.0454 13.2455 10.2679 13.3333 10.5 13.3333C10.7321 13.3333 10.9546 13.2455 11.1187 13.0893C11.2828 12.933 11.375 12.721 11.375 12.5V11.6667H19.25V15.8333C19.25 16.4964 18.9734 17.1323 18.4812 17.6011C17.9889 18.0699 17.3212 18.3333 16.625 18.3333Z" fill="#8B2AE1"/>
</svg>
