<svg width="32" height="31" viewBox="0 0 32 31" fill="none" xmlns="http://www.w3.org/2000/svg">
<path d="M25.3333 5.16667H23.8667C23.5572 3.70891 22.7384 2.39907 21.5483 1.45793C20.3582 0.516783 18.8696 0.00187876 17.3333 0L14.6667 0C13.1304 0.00187876 11.6418 0.516783 10.4517 1.45793C9.26157 2.39907 8.4428 3.70891 8.13333 5.16667H6.66667C4.89921 5.16872 3.20474 5.84981 1.95496 7.06053C0.705176 8.27126 0.00211714 9.91277 0 11.625L0 24.5417C0.00211714 26.2539 0.705176 27.8954 1.95496 29.1061C3.20474 30.3169 4.89921 30.9979 6.66667 31H25.3333C27.1008 30.9979 28.7953 30.3169 30.045 29.1061C31.2948 27.8954 31.9979 26.2539 32 24.5417V11.625C31.9979 9.91277 31.2948 8.27126 30.045 7.06053C28.7953 5.84981 27.1008 5.16872 25.3333 5.16667ZM14.6667 2.58333H17.3333C18.1577 2.58664 18.9608 2.83661 19.6329 3.29903C20.305 3.76145 20.8132 4.41374 21.088 5.16667H10.912C11.1868 4.41374 11.695 3.76145 12.3671 3.29903C13.0392 2.83661 13.8423 2.58664 14.6667 2.58333ZM6.66667 7.75H25.3333C26.3942 7.75 27.4116 8.15826 28.1618 8.88496C28.9119 9.61166 29.3333 10.5973 29.3333 11.625V15.5H2.66667V11.625C2.66667 10.5973 3.08809 9.61166 3.83824 8.88496C4.58839 8.15826 5.6058 7.75 6.66667 7.75ZM25.3333 28.4167H6.66667C5.6058 28.4167 4.58839 28.0084 3.83824 27.2817C3.08809 26.555 2.66667 25.5694 2.66667 24.5417V18.0833H14.6667V19.375C14.6667 19.7176 14.8071 20.0461 15.0572 20.2883C15.3072 20.5306 15.6464 20.6667 16 20.6667C16.3536 20.6667 16.6928 20.5306 16.9428 20.2883C17.1929 20.0461 17.3333 19.7176 17.3333 19.375V18.0833H29.3333V24.5417C29.3333 25.5694 28.9119 26.555 28.1618 27.2817C27.4116 28.0084 26.3942 28.4167 25.3333 28.4167Z" fill="#110151"/>
</svg>
