<svg width="25" height="26" viewBox="0 0 25 26" fill="none" xmlns="http://www.w3.org/2000/svg">
<g clip-path="url(#clip0_1065_3470)">
<path d="M24.7263 17.0753V25.2263H16.5753C13.5646 25.2263 10.9359 23.5808 9.52476 21.1467C10.3083 21.1406 11.0714 21.054 11.8091 20.894C12.9308 22.2909 14.6486 23.1885 16.5753 23.1885H22.6885V17.0753C22.6885 15.1486 21.7909 13.4308 20.394 12.3091C20.553 11.5714 20.6406 10.8083 20.6467 10.0248C23.0808 11.4359 24.7263 14.0646 24.7263 17.0753ZM12.563 18.5547C11.588 18.9093 10.5406 19.1131 9.44325 19.1131H0.273438V9.94325C0.273438 4.88661 4.38661 0.773438 9.44325 0.773438C14.4999 0.773438 18.6131 4.88661 18.6131 9.94325C18.6131 13.1343 16.9727 15.9464 14.4938 17.5888L16.0547 19.1019L19.9386 15.328L21.363 16.7849L17.4984 20.5619C17.1062 20.9542 16.5875 21.1508 16.0689 21.1508C15.5463 21.1508 15.0236 20.9521 14.6252 20.5537L12.563 18.5547ZM9.44325 17.0753C13.3751 17.0753 16.5753 13.8751 16.5753 9.94325C16.5753 6.01144 13.3751 2.81117 9.44325 2.81117C5.51144 2.81117 2.31117 6.01144 2.31117 9.94325V17.0753H9.44325ZM9.98936 4.89781C9.08665 4.73378 8.17272 4.98034 7.47887 5.56314C6.784 6.14593 6.38664 6.99974 6.38664 7.90551H8.42438C8.42438 7.60291 8.55785 7.31864 8.78913 7.12404C9.02246 6.92638 9.32098 6.84589 9.63683 6.90397C10.0352 6.97325 10.3745 7.31253 10.4448 7.71295C10.5395 8.25295 10.2278 8.63502 9.93332 8.79804C9.07238 9.27181 8.42438 10.4231 8.42438 11.4756V11.98H10.4621V11.4756C10.4621 11.1577 10.727 10.688 10.9175 10.5831C12.0638 9.95038 12.6792 8.65438 12.452 7.36042C12.236 6.12555 11.2222 5.11178 9.98936 4.8968V4.89781ZM8.42438 15.0376H10.4621V12.9999H8.42438V15.0376Z" fill="white"/>
</g>
<defs>
<clipPath id="clip0_1065_3470">
<rect width="24.4528" height="24.4528" fill="white" transform="translate(0.273438 0.773438)"/>
</clipPath>
</defs>
</svg>
