<svg width="14" height="13" viewBox="0 0 14 13" fill="none" xmlns="http://www.w3.org/2000/svg">
<g clip-path="url(#clip0_202_900)">
<path d="M7 13C3.14008 13 0 10.0842 0 6.5C0 2.91579 3.14008 0 7 0C10.8599 0 14 2.91579 14 6.5C14 10.0842 10.8599 13 7 13ZM7 1.08333C3.7835 1.08333 1.16667 3.51325 1.16667 6.5C1.16667 9.48675 3.7835 11.9167 7 11.9167C10.2165 11.9167 12.8333 9.48675 12.8333 6.5C12.8333 3.51325 10.2165 1.08333 7 1.08333ZM9.91667 6.5C9.91667 6.20046 9.65592 5.95833 9.33333 5.95833H7.58333V3.25C7.58333 2.95046 7.322 2.70833 7 2.70833C6.678 2.70833 6.41667 2.95046 6.41667 3.25V6.5C6.41667 6.79954 6.678 7.04167 7 7.04167H9.33333C9.65592 7.04167 9.91667 6.79954 9.91667 6.5Z" fill="#8B2AE1"/>
</g>
<defs>
<clipPath id="clip0_202_900">
<rect width="14" height="13" fill="white"/>
</clipPath>
</defs>
</svg>
