<svg width="21" height="21" viewBox="0 0 21 21" fill="none" xmlns="http://www.w3.org/2000/svg">
<g clip-path="url(#clip0_1097_3993)">
<path d="M14.4375 0C10.7572 0 7.875 1.72987 7.875 3.9375V6.20113C7.45237 6.15125 7.01312 6.125 6.5625 6.125C2.88225 6.125 0 7.85488 0 10.0625V17.0625C0 19.2701 2.88225 21 6.5625 21C9.54362 21 12.0015 19.8651 12.8275 18.2604C13.3507 18.3365 13.8898 18.375 14.4375 18.375C18.1178 18.375 21 16.6451 21 14.4375V3.9375C21 1.72987 18.1178 0 14.4375 0ZM19.25 10.9375C19.25 11.97 17.192 13.125 14.4375 13.125C13.9895 13.125 13.5503 13.0944 13.125 13.0349V11.2989C13.5538 11.3488 13.993 11.375 14.4375 11.375C16.3573 11.375 18.06 10.9043 19.25 10.1404V10.9375ZM1.75 12.7654C2.94 13.5293 4.64275 14 6.5625 14C8.48225 14 10.185 13.5293 11.375 12.7654V13.5625C11.375 14.595 9.317 15.75 6.5625 15.75C3.808 15.75 1.75 14.595 1.75 13.5625V12.7654ZM19.25 7.4375C19.25 8.47 17.192 9.625 14.4375 9.625C13.9694 9.625 13.51 9.59175 13.0673 9.527C12.8984 8.75087 12.3672 8.0535 11.5745 7.49437C12.4355 7.73937 13.405 7.875 14.4375 7.875C16.3573 7.875 18.06 7.40425 19.25 6.64038V7.4375ZM14.4375 1.75C17.192 1.75 19.25 2.905 19.25 3.9375C19.25 4.97 17.192 6.125 14.4375 6.125C11.683 6.125 9.625 4.97 9.625 3.9375C9.625 2.905 11.683 1.75 14.4375 1.75ZM6.5625 7.875C9.317 7.875 11.375 9.03 11.375 10.0625C11.375 11.095 9.317 12.25 6.5625 12.25C3.808 12.25 1.75 11.095 1.75 10.0625C1.75 9.03 3.808 7.875 6.5625 7.875ZM6.5625 19.25C3.808 19.25 1.75 18.095 1.75 17.0625V16.2654C2.94 17.0293 4.64275 17.5 6.5625 17.5C8.48225 17.5 10.185 17.0293 11.375 16.2654V17.0625C11.375 18.095 9.317 19.25 6.5625 19.25ZM14.4375 16.625C13.9895 16.625 13.5503 16.5944 13.125 16.5349V14.7989C13.5538 14.8488 13.993 14.875 14.4375 14.875C16.3573 14.875 18.06 14.4043 19.25 13.6404V14.4375C19.25 15.47 17.192 16.625 14.4375 16.625Z" fill="#8B2AE1"/>
</g>
<defs>
<clipPath id="clip0_1097_3993">
<rect width="21" height="21" fill="white"/>
</clipPath>
</defs>
</svg>
