<svg width="25" height="25" viewBox="0 0 25 25" fill="none" xmlns="http://www.w3.org/2000/svg">
<g clip-path="url(#clip0_719_3113)">
<path d="M13.3705 0.029023C11.5847 -0.0959342 9.79278 0.164175 8.11614 0.791749C6.4395 1.41932 4.91722 2.39972 3.65232 3.6666C2.38742 4.93348 1.40939 6.45728 0.784438 8.1349C0.15948 9.81252 -0.0978324 11.6048 0.0299114 13.3905C0.489286 20.0082 6.33512 24.9999 13.6278 24.9999H19.7914C21.1722 24.9982 22.496 24.4489 23.4724 23.4725C24.4488 22.4962 24.9981 21.1724 24.9997 19.7915V12.854C25.0386 9.64303 23.8613 6.5362 21.7042 4.15733C19.5471 1.77845 16.57 0.303645 13.3705 0.029023ZM19.4789 10.1165L12.4028 17.103C12.0124 17.492 11.4837 17.7104 10.9325 17.7104C10.3814 17.7104 9.85267 17.492 9.4622 17.103L5.52054 13.2446C5.32301 13.0513 5.21039 12.7873 5.20746 12.5109C5.20453 12.2345 5.31152 11.9682 5.50491 11.7707C5.6983 11.5732 5.96223 11.4605 6.23865 11.4576C6.51508 11.4547 6.78134 11.5617 6.97887 11.7551L10.9299 15.6165L18.0195 8.63736C18.2194 8.46145 18.4791 8.36878 18.7453 8.37841C19.0114 8.38803 19.2637 8.49922 19.4504 8.68911C19.6371 8.87901 19.744 9.13319 19.7491 9.39944C19.7542 9.66569 19.6571 9.92378 19.4778 10.1207L19.4789 10.1165Z" fill="#8B2AE1"/>
</g>
<defs>
<clipPath id="clip0_719_3113">
<rect width="25" height="25" fill="white"/>
</clipPath>
</defs>
</svg>
