<svg width="29" height="29" viewBox="0 0 29 29" fill="none" xmlns="http://www.w3.org/2000/svg">
<g clip-path="url(#clip0_1178_3706)">
<path d="M20.5417 0H24.1667C25.4485 0 26.6779 0.509225 27.5843 1.41565C28.4908 2.32208 29 3.55145 29 4.83333V8.45833C29 9.74021 28.4908 10.9696 27.5843 11.876C26.6779 12.7824 25.4485 13.2917 24.1667 13.2917H20.5417C19.2598 13.2917 18.0304 12.7824 17.124 11.876C16.2176 10.9696 15.7083 9.74021 15.7083 8.45833V4.83333C15.7083 3.55145 16.2176 2.32208 17.124 1.41565C18.0304 0.509225 19.2598 0 20.5417 0V0ZM18.125 8.45833C18.125 9.09927 18.3796 9.71396 18.8328 10.1672C19.286 10.6204 19.9007 10.875 20.5417 10.875H24.1667C24.8076 10.875 25.4223 10.6204 25.8755 10.1672C26.3287 9.71396 26.5833 9.09927 26.5833 8.45833V4.83333C26.5833 4.19239 26.3287 3.5777 25.8755 3.12449C25.4223 2.67128 24.8076 2.41667 24.1667 2.41667H20.5417C19.9007 2.41667 19.286 2.67128 18.8328 3.12449C18.3796 3.5777 18.125 4.19239 18.125 4.83333V8.45833Z" fill="#110151"/>
<path d="M4.83341 0H8.45841C9.74029 0 10.9697 0.509225 11.8761 1.41565C12.7825 2.32208 13.2917 3.55145 13.2917 4.83333V8.45833C13.2917 9.74021 12.7825 10.9696 11.8761 11.876C10.9697 12.7824 9.74029 13.2917 8.45841 13.2917H4.83341C3.55153 13.2917 2.32216 12.7824 1.41573 11.876C0.509307 10.9696 8.10623e-05 9.74021 8.10623e-05 8.45833V4.83333C8.10623e-05 3.55145 0.509307 2.32208 1.41573 1.41565C2.32216 0.509225 3.55153 0 4.83341 0ZM2.41675 8.45833C2.41675 9.09927 2.67136 9.71396 3.12457 10.1672C3.57779 10.6204 4.19247 10.875 4.83341 10.875H8.45841C9.09935 10.875 9.71404 10.6204 10.1673 10.1672C10.6205 9.71396 10.8751 9.09927 10.8751 8.45833V4.83333C10.8751 4.19239 10.6205 3.5777 10.1673 3.12449C9.71404 2.67128 9.09935 2.41667 8.45841 2.41667H4.83341C4.19247 2.41667 3.57779 2.67128 3.12457 3.12449C2.67136 3.5777 2.41675 4.19239 2.41675 4.83333V8.45833Z" fill="#110151"/>
<path d="M20.5417 15.7085H24.1667C25.4485 15.7085 26.6779 16.2177 27.5843 17.1241C28.4908 18.0306 29 19.2599 29 20.5418V24.1668C29 25.4487 28.4908 26.6781 27.5843 27.5845C26.6779 28.4909 25.4485 29.0002 24.1667 29.0002H20.5417C19.2598 29.0002 18.0304 28.4909 17.124 27.5845C16.2176 26.6781 15.7083 25.4487 15.7083 24.1668V20.5418C15.7083 19.2599 16.2176 18.0306 17.124 17.1241C18.0304 16.2177 19.2598 15.7085 20.5417 15.7085ZM18.125 24.1668C18.125 24.8078 18.3796 25.4225 18.8328 25.8757C19.286 26.3289 19.9007 26.5835 20.5417 26.5835H24.1667C24.8076 26.5835 25.4223 26.3289 25.8755 25.8757C26.3287 25.4225 26.5833 24.8078 26.5833 24.1668V20.5418C26.5833 19.9009 26.3287 19.2862 25.8755 18.833C25.4223 18.3798 24.8076 18.1252 24.1667 18.1252H20.5417C19.9007 18.1252 19.286 18.3798 18.8328 18.833C18.3796 19.2862 18.125 19.9009 18.125 20.5418V24.1668Z" fill="#110151"/>
<path d="M4.83341 15.7085H8.45841C9.74029 15.7085 10.9697 16.2177 11.8761 17.1241C12.7825 18.0306 13.2917 19.2599 13.2917 20.5418V24.1668C13.2917 25.4487 12.7825 26.6781 11.8761 27.5845C10.9697 28.4909 9.74029 29.0002 8.45841 29.0002H4.83341C3.55153 29.0002 2.32216 28.4909 1.41573 27.5845C0.509307 26.6781 8.10623e-05 25.4487 8.10623e-05 24.1668V20.5418C8.10623e-05 19.2599 0.509307 18.0306 1.41573 17.1241C2.32216 16.2177 3.55153 15.7085 4.83341 15.7085ZM2.41675 24.1668C2.41675 24.8078 2.67136 25.4225 3.12457 25.8757C3.57779 26.3289 4.19247 26.5835 4.83341 26.5835H8.45841C9.09935 26.5835 9.71404 26.3289 10.1673 25.8757C10.6205 25.4225 10.8751 24.8078 10.8751 24.1668V20.5418C10.8751 19.9009 10.6205 19.2862 10.1673 18.833C9.71404 18.3798 9.09935 18.1252 8.45841 18.1252H4.83341C4.19247 18.1252 3.57779 18.3798 3.12457 18.833C2.67136 19.2862 2.41675 19.9009 2.41675 20.5418V24.1668Z" fill="#110151"/>
</g>
<defs>
<clipPath id="clip0_1178_3706">
<rect width="29" height="29" fill="white" transform="matrix(-1 0 0 1 29 0)"/>
</clipPath>
</defs>
</svg>
