<?xml version="1.0" encoding="utf-8"?>
<!-- Generator: Adobe Illustrator 27.3.1, SVG Export Plug-In . SVG Version: 6.00 Build 0)  -->
<svg version="1.1" id="Capa_1" xmlns:svgjs="http://svgjs.com/svgjs"
	 xmlns="http://www.w3.org/2000/svg" xmlns:xlink="http://www.w3.org/1999/xlink" x="0px" y="0px" viewBox="0 0 512 512"
	 style="enable-background:new 0 0 512 512;" xml:space="preserve">
<style type="text/css">
	.st0{fill:#8B2AE1;stroke:#FFFFFF;stroke-width:4;stroke-miterlimit:10;}
</style>
<path id="形状" class="st0" d="M332.3,58.5c6.5,0,14.6,1.7,21.2,3.3c22.8,5.5,49.9,12.4,69.1,26.8c17.9,13.4,31.8,36.8,42.5,60.6
	c22.3,49.5,37.9,115.6,43.2,165.8c2.6,23.9,3.2,47.8-1.4,63.9c-2.3,7.9-7.2,13.9-10.6,17.5c-10.5,11.1-24,19.4-37.3,27l-6.6,3.7
	c-4.3,2.4-8.7,4.8-13.2,7.1l-13.1,6.8l0,0l-18,9l0,0l-14.5,7.1l0,0c-12.4,6.2-27.5,1.2-33.7-11.2c-4.9-9.8-2.8-21.2,4.4-28.7
	l-10.9-21.8c-29.4,9.1-62.2,14.1-96.6,14.1s-67.1-5-96.6-14.1l-10.9,21.7c7.2,7.4,9.4,18.9,4.5,28.7c-6.2,12.4-21.3,17.4-33.7,11.2
	l-13.6-6.8c-15.2-7.5-30.3-15-45.1-23.2c-15.4-8.6-31.7-17.7-43.9-30.7c-3.4-3.6-8.3-9.6-10.6-17.5c-4.6-16.1-4-40.1-1.4-63.9
	c5.4-50.2,20.9-116.3,43.2-165.8c10.7-23.8,24.6-47.2,42.5-60.6c19.2-14.4,46.3-21.3,69.1-26.8c6.6-1.6,14.7-3.3,21.2-3.3
	c13.9,0,25.1,11.2,25.1,25.1c0,1.3-0.1,2.5-0.3,3.7c16.2-2.4,33.1-3.7,50.4-3.7s34.3,1.3,50.5,3.7c-0.2-1.2-0.3-2.4-0.3-3.7
	C307.2,69.7,318.4,58.5,332.3,58.5z M366.2,117.8c-3.8-1.2-4.7-0.7-6,1.6l-1.6,2.8l0,0c-8.5,14.7-25.4,21.4-41,18
	c-18.9-4.1-39.3-6.4-60.7-6.4c-21.4,0-41.8,2.3-60.7,6.4c-15.6,3.4-32.5-3.3-41-18l-1.6-2.8c-1.3-2.2-2.2-2.8-6-1.6
	c-8.9,2.8-18.5,5.9-26.2,11c-7.2,5.4-16.8,18.8-26.9,41.1c-19.2,42.6-34.3,105.5-39.1,150.5c-1,9.5-1.5,17.7-1.7,24.4v7.4
	c0.1,4.5,0.4,8,0.9,10.6c6.4,6.2,14.3,11.1,22.2,15.6l17.1,9.4l0,0l11.2,5.9l9.1-18.3c-7.9-7.4-10.4-19.4-5.3-29.5
	c6.2-12.4,21.3-17.4,33.7-11.2c30.5,15.3,70.2,24.9,114.2,24.9s83.7-9.6,114.2-24.9c12.4-6.2,27.5-1.2,33.7,11.2
	c4.6,9.2,3,20-3.2,27.4l-2,2.1l9.2,18.3c7.5-3.9,15-7.9,22.5-12.1c9.8-5.4,20.1-11.1,28-18.9c0.4-2.6,0.8-6.1,0.9-10.6v-7.4
	c-0.1-6.7-0.6-14.9-1.7-24.4c-4.8-45-19.9-107.9-39.1-150.5c-10-22.3-19.7-35.7-26.9-41.1C384.8,123.7,375.2,120.6,366.2,117.8z
	 M175.4,221.6c24.2,0,43.9,19.7,43.9,43.9s-19.7,43.9-43.9,43.9s-43.9-19.7-43.9-43.9S151.2,221.6,175.4,221.6z M338.5,221.6
	c24.2,0,43.9,19.7,43.9,43.9s-19.7,43.9-43.9,43.9c-24.2,0-43.9-19.7-43.9-43.9S314.2,221.6,338.5,221.6z"/>
</svg>
