<svg width="17" height="18" viewBox="0 0 17 18" fill="none" xmlns="http://www.w3.org/2000/svg">
<g clip-path="url(#clip0_226_4522)">
<path d="M13.215 1.15872L4.57901 9.79472C4.24917 10.1228 3.98767 10.513 3.80967 10.9428C3.63167 11.3726 3.54069 11.8335 3.54201 12.2987V13.25C3.54201 13.4378 3.61663 13.618 3.74947 13.7508C3.88231 13.8837 4.06248 13.9583 4.25034 13.9583H5.20163C5.66684 13.9596 6.12769 13.8686 6.55749 13.6906C6.9873 13.5126 7.37753 13.2511 7.70559 12.9213L16.3416 4.2853C16.7555 3.87034 16.988 3.30814 16.988 2.72201C16.988 2.13588 16.7555 1.57368 16.3416 1.15872C15.9206 0.756311 15.3607 0.531738 14.7783 0.531738C14.1959 0.531738 13.636 0.756311 13.215 1.15872ZM15.34 3.28372L6.70401 11.9197C6.3046 12.3167 5.76476 12.5402 5.20163 12.5416H4.95867V12.2987C4.96015 11.7355 5.18362 11.1957 5.58059 10.7963L14.2166 2.1603C14.3679 2.01577 14.5691 1.93512 14.7783 1.93512C14.9875 1.93512 15.1887 2.01577 15.34 2.1603C15.4887 2.30942 15.5722 2.51142 15.5722 2.72201C15.5722 2.93261 15.4887 3.1346 15.34 3.28372Z" fill="#C59BEB"/>
<path d="M16.2917 6.86013C16.1038 6.86013 15.9236 6.93475 15.7908 7.06759C15.658 7.20043 15.5833 7.3806 15.5833 7.56846V11.125H12.75C12.1864 11.125 11.6459 11.3489 11.2474 11.7474C10.8489 12.1459 10.625 12.6864 10.625 13.25V16.0833H3.54167C2.97808 16.0833 2.43758 15.8595 2.03906 15.4609C1.64055 15.0624 1.41667 14.5219 1.41667 13.9583V4.04167C1.41667 3.47808 1.64055 2.93758 2.03906 2.53906C2.43758 2.14055 2.97808 1.91667 3.54167 1.91667H9.94642C10.1343 1.91667 10.3144 1.84204 10.4473 1.7092C10.5801 1.57636 10.6548 1.3962 10.6548 1.20833C10.6548 1.02047 10.5801 0.840304 10.4473 0.707466C10.3144 0.574628 10.1343 0.5 9.94642 0.5H3.54167C2.6027 0.501125 1.70252 0.874625 1.03857 1.53857C0.374625 2.20252 0.00112473 3.1027 0 4.04167L0 13.9583C0.00112473 14.8973 0.374625 15.7975 1.03857 16.4614C1.70252 17.1254 2.6027 17.4989 3.54167 17.5H11.5763C12.0416 17.5013 12.5026 17.4104 12.9325 17.2324C13.3624 17.0544 13.7528 16.7929 14.081 16.463L15.9623 14.5803C16.2922 14.2522 16.5538 13.862 16.7319 13.4322C16.91 13.0024 17.0011 12.5415 17 12.0763V7.56846C17 7.3806 16.9254 7.20043 16.7925 7.06759C16.6597 6.93475 16.4795 6.86013 16.2917 6.86013ZM13.0794 15.4614C12.7946 15.7455 12.4346 15.9421 12.0417 16.0281V13.25C12.0417 13.0621 12.1163 12.882 12.2491 12.7491C12.382 12.6163 12.5621 12.5417 12.75 12.5417H15.5302C15.4426 12.9337 15.2462 13.2932 14.9635 13.5787L13.0794 15.4614Z" fill="#8B2AE1"/>
</g>
<defs>
<clipPath id="clip0_226_4522">
<rect width="17" height="17" fill="white" transform="translate(0 0.5)"/>
</clipPath>
</defs>
</svg>
