<svg width="20" height="18" viewBox="0 0 20 18" fill="none" xmlns="http://www.w3.org/2000/svg">
<path fill-rule="evenodd" clip-rule="evenodd" d="M15 2.14865e-06H5C2.23858 2.14865e-06 0 2.23858 0 5V13C0 15.7614 2.23858 18 5 18H14.9919L15.2087 17.9952C17.8687 17.8794 19.9901 15.6885 19.9939 13.0014L19.997 5.006L20 4.99797C20 2.23601 17.7607 -0.00253151 15 2.14865e-06ZM15.0009 2L15.1771 2.00494C16.6929 2.09145 17.907 3.30518 17.9949 4.8217L17.998 4.99949L17.9939 12.9995C17.9916 14.6556 16.6479 15.9985 14.991 16L5 16C3.34315 16 2 14.6569 2 13V5C2 3.34315 3.34315 2 5 2L15.0009 2Z" fill="#8B2AE1"/>
<path fill-rule="evenodd" clip-rule="evenodd" d="M5.29289 5.29289C5.65338 4.93241 6.22061 4.90468 6.6129 5.2097L6.70711 5.29289L7.87868 6.46447C9.00339 7.58918 10.799 7.63416 11.9773 6.59943L12.1213 6.46447L13.2929 5.29289C13.6834 4.90237 14.3166 4.90237 14.7071 5.29289C15.0676 5.65338 15.0953 6.22061 14.7903 6.6129L14.7071 6.70711L13.5355 7.87868C11.6421 9.77213 8.60784 9.82951 6.64525 8.05081L6.46447 7.87868L5.29289 6.70711C4.90237 6.31658 4.90237 5.68342 5.29289 5.29289Z" fill="#BF8FEA"/>
</svg>
