<svg width="21" height="24" viewBox="0 0 21 24" fill="none" xmlns="http://www.w3.org/2000/svg">
<g clip-path="url(#clip0_616_1751)">
<path d="M10.5001 15.5596C8.35169 15.5596 6.61035 13.8178 6.61035 11.6698C6.61035 9.52186 8.35215 7.78007 10.5001 7.78007C12.6481 7.78007 14.3899 9.52186 14.3899 11.6698C14.3899 13.8178 12.6481 15.5596 10.5001 15.5596ZM10.5001 9.72472C9.42612 9.72472 8.555 10.5954 8.555 11.6698C8.555 12.7443 9.42567 13.6149 10.5001 13.6149C11.5745 13.6149 12.4452 12.7443 12.4452 11.6698C12.4452 10.5954 11.5745 9.72472 10.5001 9.72472Z" fill="#8B2AE1"/>
<path d="M19.5385 9.82259L19.1068 10.0715C19.301 11.129 19.301 12.2135 19.1068 13.2711L19.5385 13.52C20.9348 14.3255 21.4139 16.1106 20.6084 17.5073C19.8029 18.9035 18.0178 19.3826 16.6211 18.5771L16.1885 18.3273C15.3711 19.0257 14.4316 19.5668 13.4178 19.9242V20.4229C13.4178 22.0338 12.1118 23.3398 10.5004 23.3398C8.88898 23.3398 7.58297 22.0338 7.58297 20.4224V19.9237C6.56917 19.5654 5.63012 19.0225 4.81324 18.3232L4.37836 18.5753C2.9821 19.3808 1.197 18.9022 0.391063 17.5054C-0.41442 16.1092 0.0642199 14.3241 1.46094 13.5181L1.89263 13.2693C1.69843 12.2117 1.69843 11.1272 1.89263 10.0697L1.46094 9.82076C0.0646758 9.01528 -0.41442 7.23018 0.391063 5.83346C1.19655 4.43674 2.98165 3.9581 4.37836 4.76359L4.81096 5.01339C5.62876 4.31503 6.56826 3.77349 7.58252 3.41656V2.91786C7.58252 1.30643 8.88852 0.000431061 10.4999 0.000431061C12.1114 0.000431061 13.4174 1.30643 13.4174 2.91786V3.41656C14.4312 3.77485 15.3702 4.31777 16.1871 5.01704L16.622 4.76632C18.0182 3.96084 19.8033 4.43948 20.6093 5.83619C21.4148 7.23246 20.9361 9.01756 19.5394 9.8235L19.5385 9.82259ZM17.0605 13.4944C17.3896 12.301 17.3896 11.0411 17.0605 9.84766C16.9424 9.42053 17.128 8.96742 17.5118 8.74587L18.5662 8.13732C19.0316 7.86882 19.1911 7.27394 18.9226 6.80852C18.6542 6.3431 18.0593 6.18355 17.5938 6.45205L16.5376 7.06288C16.1534 7.28534 15.667 7.21924 15.3561 6.90242C14.4904 6.01899 13.4 5.3881 12.2025 5.07903C11.7727 4.96826 11.4718 4.58079 11.4723 4.1368V2.91831C11.4723 2.38132 11.0369 1.94599 10.4999 1.94599C9.96296 1.94599 9.52762 2.38132 9.52762 2.91831V4.13588C9.52762 4.57988 9.22722 4.96781 8.79735 5.07812C7.59939 5.38855 6.50945 6.02036 5.64471 6.90561C5.33382 7.22243 4.84743 7.28853 4.46315 7.06607L3.40878 6.45615C2.94563 6.18446 2.34984 6.33991 2.07816 6.8035C1.80647 7.26665 1.96191 7.86244 2.42551 8.13412C2.42916 8.1364 2.43281 8.13823 2.43645 8.14051L3.49083 8.74906C3.87465 8.97061 4.06018 9.42372 3.94212 9.85085C3.613 11.0443 3.613 12.3042 3.94212 13.4976C4.05836 13.9238 3.87237 14.3747 3.48992 14.5958L2.43554 15.2043C1.97012 15.4728 1.81057 16.0677 2.07907 16.5331C2.34756 16.9985 2.94244 17.1581 3.40786 16.8896L4.46406 16.2788C4.84743 16.0559 5.33291 16.1201 5.64471 16.4351C6.51036 17.3185 7.60075 17.9494 8.79827 18.2585C9.2295 18.3693 9.53081 18.7595 9.52853 19.2048V20.4224C9.52853 20.9594 9.96387 21.3947 10.5009 21.3947C11.0378 21.3947 11.4732 20.9594 11.4732 20.4224V19.2048C11.4732 18.7609 11.7736 18.3729 12.2034 18.2626C13.4014 17.9522 14.4923 17.3204 15.357 16.4351C15.6679 16.1183 16.1543 16.0522 16.5386 16.2747L17.5929 16.8846C18.0561 17.1563 18.6519 17.0008 18.9236 16.5377C19.1952 16.0745 19.0398 15.4787 18.5767 15.2071C18.573 15.2048 18.5694 15.203 18.5653 15.2007L17.5109 14.5921C17.1289 14.3706 16.9443 13.9197 17.0605 13.494V13.4949V13.4944Z" fill="#8B2AE1"/>
</g>
<defs>
<clipPath id="clip0_616_1751">
<rect width="21" height="23.3394" fill="white" transform="matrix(1 0 0 -1 0 23.3398)"/>
</clipPath>
</defs>
</svg>
