<svg width="21" height="21" viewBox="0 0 21 21" fill="none" xmlns="http://www.w3.org/2000/svg">
<g clip-path="url(#clip0_197_1743)">
<path d="M20.7433 19.5063L15.5204 14.2834C16.9437 12.5427 17.6435 10.3215 17.4751 8.0793C17.3066 5.83708 16.2827 3.7454 14.6153 2.23689C12.9479 0.728378 10.7645 -0.081538 8.51662 -0.0253352C6.26879 0.0308677 4.12855 0.948889 2.5386 2.53884C0.948645 4.1288 0.0306235 6.26904 -0.0255793 8.51687C-0.0817821 10.7647 0.728134 12.9481 2.23664 14.6156C3.74515 16.283 5.83684 17.3068 8.07905 17.4753C10.3213 17.6438 12.5425 16.944 14.2832 15.5207L19.5061 20.7436C19.6711 20.9029 19.8921 20.9911 20.1215 20.9891C20.351 20.9872 20.5704 20.8951 20.7327 20.7329C20.8949 20.5707 20.9869 20.3512 20.9889 20.1218C20.9909 19.8924 20.9027 19.6713 20.7433 19.5063ZM8.74969 15.7499C7.36522 15.7499 6.01184 15.3394 4.86069 14.5702C3.70955 13.801 2.81234 12.7078 2.28253 11.4287C1.75272 10.1496 1.61409 8.74217 1.88419 7.3843C2.15429 6.02643 2.82097 4.77915 3.79994 3.80018C4.77891 2.82122 6.02619 2.15453 7.38405 1.88443C8.74192 1.61434 10.1494 1.75296 11.4285 2.28277C12.7076 2.81259 13.8008 3.7098 14.57 4.86094C15.3391 6.01208 15.7497 7.36546 15.7497 8.74993C15.7476 10.6058 15.0094 12.3851 13.6971 13.6974C12.3848 15.0097 10.6056 15.7478 8.74969 15.7499Z" fill="#8B2AE1"/>
</g>
<defs>
<clipPath id="clip0_197_1743">
<rect width="21" height="21" fill="white"/>
</clipPath>
</defs>
</svg>
