<svg width="22" height="22" viewBox="0 0 22 22" fill="none" xmlns="http://www.w3.org/2000/svg">
<path d="M21.1942 8.29863L14.2413 1.34063C13.3808 0.482103 12.2152 0 11 0C9.78481 0 8.6192 0.482103 7.75867 1.34063L0.80576 8.29863C0.549484 8.55342 0.3463 8.85657 0.207986 9.19052C0.0696732 9.52446 -0.00101787 9.88256 1.10728e-05 10.244V19.2484C1.10728e-05 19.9781 0.289742 20.678 0.805467 21.1941C1.32119 21.7101 2.02066 22 2.75001 22H19.25C19.9793 22 20.6788 21.7101 21.1945 21.1941C21.7103 20.678 22 19.9781 22 19.2484V10.244C22.001 9.88256 21.9303 9.52446 21.792 9.19052C21.6537 8.85657 21.4505 8.55342 21.1942 8.29863V8.29863ZM13.75 20.1656H8.25V16.5572C8.25 15.8275 8.53973 15.1276 9.05546 14.6115C9.57118 14.0955 10.2707 13.8056 11 13.8056C11.7293 13.8056 12.4288 14.0955 12.9445 14.6115C13.4603 15.1276 13.75 15.8275 13.75 16.5572V20.1656ZM20.1667 19.2484C20.1667 19.4916 20.0701 19.7249 19.8982 19.8969C19.7263 20.0689 19.4931 20.1656 19.25 20.1656H15.5833V16.5572C15.5833 15.3409 15.1004 14.1744 14.2409 13.3144C13.3814 12.4543 12.2156 11.9712 11 11.9712C9.78443 11.9712 8.61864 12.4543 7.7591 13.3144C6.89956 14.1744 6.41667 15.3409 6.41667 16.5572V20.1656H2.75001C2.50689 20.1656 2.27374 20.0689 2.10183 19.8969C1.92992 19.7249 1.83334 19.4916 1.83334 19.2484V10.244C1.83419 10.001 1.93068 9.76799 2.10193 9.59557L9.05484 2.64032C9.57156 2.1257 10.2709 1.83679 11 1.83679C11.7291 1.83679 12.4284 2.1257 12.9452 2.64032L19.8981 9.59832C20.0687 9.77007 20.1651 10.0019 20.1667 10.244V19.2484Z" fill="#8B2AE1"/>
</svg>
