<svg width="26" height="26" viewBox="0 0 26 26" fill="none" xmlns="http://www.w3.org/2000/svg">
<circle cx="13" cy="13" r="13" fill="#8B2AE1"/>
<path d="M11.625 14.7734C11.6354 15.0339 11.7292 15.2344 11.9062 15.375C12.0885 15.5156 12.3021 15.5859 12.5469 15.5859C12.7969 15.5859 13.013 15.513 13.1953 15.3672C13.3828 15.2214 13.474 15.0234 13.4688 14.7734L13.4609 14.2656C13.4557 14.0833 13.5286 13.8984 13.6797 13.7109C13.8307 13.5182 14.0208 13.3438 14.25 13.1875C14.4792 13.0312 14.7266 12.8464 14.9922 12.6328C15.263 12.4141 15.513 12.1927 15.7422 11.9688C15.9714 11.7396 16.1615 11.4531 16.3125 11.1094C16.4688 10.7656 16.5469 10.3958 16.5469 10C16.5469 9.48438 16.4531 9.03125 16.2656 8.64062C16.0833 8.24479 15.8281 7.92969 15.5 7.69531C15.1771 7.46094 14.8099 7.28646 14.3984 7.17188C13.987 7.05729 13.5365 7 13.0469 7C12.2188 7 11.4271 7.10677 10.6719 7.32031C10.4479 7.38802 10.2786 7.4974 10.1641 7.64844C10.0547 7.79948 10 7.96354 10 8.14062C10 8.38542 10.0677 8.58854 10.2031 8.75C10.3438 8.91146 10.5234 8.99219 10.7422 8.99219C10.8516 8.99219 11.125 8.96094 11.5625 8.89844C12 8.83073 12.3307 8.79688 12.5547 8.79688C13.0495 8.79688 13.4531 8.90365 13.7656 9.11719C14.0833 9.32552 14.2422 9.67708 14.2422 10.1719C14.2422 10.3958 14.1927 10.6146 14.0938 10.8281C14 11.0365 13.875 11.2266 13.7188 11.3984C13.5625 11.5703 13.388 11.7422 13.1953 11.9141C13.0078 12.0807 12.8203 12.2474 12.6328 12.4141C12.4505 12.5807 12.2812 12.75 12.125 12.9219C11.9688 13.0938 11.8438 13.2839 11.75 13.4922C11.6562 13.7005 11.612 13.9167 11.6172 14.1406L11.625 14.7734ZM12.5625 18.8047C12.8906 18.8047 13.1615 18.6953 13.375 18.4766C13.5885 18.263 13.6953 18.0026 13.6953 17.6953C13.6953 17.3828 13.5859 17.1224 13.3672 16.9141C13.1484 16.7057 12.8802 16.6016 12.5625 16.6016C12.2292 16.6016 11.9583 16.7109 11.75 16.9297C11.5417 17.1432 11.4375 17.3984 11.4375 17.6953C11.4375 18.0026 11.5417 18.263 11.75 18.4766C11.9635 18.6953 12.2344 18.8047 12.5625 18.8047Z" fill="white"/>
</svg>
