<svg width="19" height="19" viewBox="0 0 19 19" fill="none" xmlns="http://www.w3.org/2000/svg">
<path d="M6.56505 8.16101H8.1293V13.1858H6.56505V8.16101ZM7.36517 5.66064C7.54478 5.66064 7.72035 5.71391 7.86969 5.81369C8.01903 5.91348 8.13543 6.05532 8.20416 6.22126C8.2729 6.3872 8.29092 6.56979 8.25588 6.74595C8.22084 6.92211 8.13431 7.08393 8.00731 7.21093C7.8803 7.33794 7.71851 7.42443 7.54235 7.45947C7.36619 7.49451 7.1836 7.47652 7.01766 7.40779C6.85172 7.33905 6.70987 7.22266 6.61008 7.07332C6.51029 6.92397 6.45703 6.7484 6.45703 6.56879C6.45703 6.32793 6.55273 6.09695 6.72304 5.92664C6.89335 5.75633 7.12432 5.66064 7.36517 5.66064Z" fill="#110151"/>
<path d="M9.10938 8.16082H10.6056V8.84493H10.6296C10.7808 8.59093 10.9977 8.38248 11.2576 8.24164C11.5174 8.1008 11.8105 8.0328 12.1058 8.04481C13.706 8.04481 13.9781 9.08096 13.9781 10.4452V13.2016H12.4179V10.7292C12.4179 10.1451 12.4179 9.39701 11.6178 9.39701C10.8176 9.39701 10.6816 10.0291 10.6816 10.6852V13.1736H9.12139L9.10938 8.16082Z" fill="#110151"/>
<path d="M9.64526 18.2905C14.4199 18.2905 18.2906 14.4199 18.2906 9.64527C18.2906 4.87062 14.4199 1 9.64526 1C4.87061 1 1 4.87062 1 9.64527C1 14.4199 4.87061 18.2905 9.64526 18.2905Z" stroke="#110151" stroke-width="0.91" stroke-miterlimit="10"/>
</svg>
