<svg width="18" height="20" viewBox="0 0 18 20" fill="none" xmlns="http://www.w3.org/2000/svg">
<path fill-rule="evenodd" clip-rule="evenodd" d="M13 6H5C2.23858 6 0 8.23858 0 11V15C0 17.7614 2.23858 20 5 20H13C15.7614 20 18 17.7614 18 15V11C18 8.23858 15.7614 6 13 6ZM5 8H13C14.6569 8 16 9.34315 16 11V15C16 16.6569 14.6569 18 13 18H5C3.34315 18 2 16.6569 2 15V11C2 9.34315 3.34315 8 5 8ZM9 11C8.44771 11 8 11.4477 8 12V14C8 14.5523 8.44771 15 9 15C9.55228 15 10 14.5523 10 14V12C10 11.4477 9.55228 11 9 11Z" fill="#8B2AE1"/>
<g opacity="0.5">
<path fill-rule="evenodd" clip-rule="evenodd" d="M9 0C11.89 0 13.8924 2.06728 13.9958 4.84958L14 5.07671V6.99996C14 7.55224 13.5523 7.99996 13 7.99996C12.4872 7.99996 12.0645 7.61392 12.0067 7.11658L12 6.99996V5.07671C12 3.25479 10.8307 2 9 2C7.23282 2 6.09149 3.1519 6.00522 4.86605L6 5.0588V6.99996C6 7.55224 5.55228 7.99996 5 7.99996C4.48716 7.99996 4.06449 7.61392 4.00673 7.11658L4 6.99996L4.00001 5.05451C4.01241 2.15921 6.03349 0 9 0Z" fill="#8B2AE1"/>
</g>
</svg>
