<svg width="22" height="22" viewBox="0 0 22 22" fill="none" xmlns="http://www.w3.org/2000/svg">
<g clip-path="url(#clip0_1817_6492)">
<path d="M11 1.8335C13.9685 1.8335 16.3878 4.18527 16.4962 7.1273L16.5 7.3335H17.4167C18.3832 7.3335 19.175 8.08138 19.245 9.03001L19.25 9.16683V18.3335C19.25 19.3 18.5021 20.0918 17.5535 20.1618L17.4167 20.1668H4.58333C3.61683 20.1668 2.82502 19.419 2.75503 18.4703L2.75 18.3335V9.16683C2.75 8.20033 3.49789 7.40851 4.44651 7.33852L4.58333 7.3335H5.5C5.5 4.29593 7.96243 1.8335 11 1.8335ZM17.4167 9.16683H4.58333V18.3335H17.4167V9.16683ZM11 11.0002C12.0126 11.0002 12.8333 11.8209 12.8333 12.8335C12.8333 13.4599 12.5192 14.0129 12.0399 14.3436L11.9167 14.4215V15.5835C11.9167 16.0898 11.5063 16.5002 11 16.5002C10.5299 16.5002 10.1424 16.1463 10.0895 15.6904L10.0833 15.5835V14.4215C9.53535 14.1045 9.16667 13.5121 9.16667 12.8335C9.16667 11.8209 9.98745 11.0002 11 11.0002ZM11 3.66683C8.97496 3.66683 7.33333 5.30845 7.33333 7.3335H14.6667C14.6667 5.30845 13.025 3.66683 11 3.66683Z" fill="white"/>
</g>
<defs>
<clipPath id="clip0_1817_6492">
<rect width="22" height="22" fill="white"/>
</clipPath>
</defs>
</svg>
