<svg width="16" height="16" viewBox="0 0 16 16" fill="none" xmlns="http://www.w3.org/2000/svg">
<g clip-path="url(#clip0_1754_7656)">
<path d="M11.3333 0C11.1565 0 10.987 0.0702379 10.8619 0.195262C10.7369 0.320286 10.6667 0.489856 10.6667 0.666667C10.6667 2.63267 8.94467 3.33333 7.33333 3.33333H2.66667C1.95942 3.33333 1.28115 3.61428 0.781049 4.11438C0.280952 4.61448 0 5.29276 0 6L0 7.33333C0.00145611 7.73249 0.0929745 8.12618 0.267735 8.48505C0.442496 8.84392 0.695992 9.15872 1.00933 9.406L3.39067 14.7207C3.56003 15.1014 3.83612 15.4249 4.18552 15.6519C4.53491 15.879 4.94264 15.9999 5.35933 16C5.69087 15.9998 6.0171 15.9167 6.30831 15.7582C6.59952 15.5997 6.84648 15.3709 7.0267 15.0926C7.20692 14.8144 7.31468 14.4954 7.34018 14.1649C7.36567 13.8343 7.30809 13.5026 7.17267 13.2L5.706 10H7.33333C8.94467 10 10.6667 10.7007 10.6667 12.6667C10.6667 12.8435 10.7369 13.013 10.8619 13.1381C10.987 13.2631 11.1565 13.3333 11.3333 13.3333C11.5101 13.3333 11.6797 13.2631 11.8047 13.1381C11.9298 13.013 12 12.8435 12 12.6667V0.666667C12 0.489856 11.9298 0.320286 11.8047 0.195262C11.6797 0.0702379 11.5101 0 11.3333 0ZM5.958 13.746C6.00216 13.8457 6.02073 13.9549 6.01203 14.0636C6.00333 14.1723 5.96764 14.2771 5.90818 14.3686C5.84873 14.46 5.76739 14.5352 5.67155 14.5872C5.57571 14.6393 5.4684 14.6666 5.35933 14.6667C5.20026 14.6666 5.04465 14.6203 4.91139 14.5334C4.77813 14.4465 4.67297 14.3228 4.60867 14.1773L2.73667 10H4.23933L5.958 13.746ZM10.6667 9.73333C9.7142 8.99946 8.53491 8.62209 7.33333 8.66667H2.66667C2.31305 8.66667 1.97391 8.52619 1.72386 8.27614C1.47381 8.02609 1.33333 7.68696 1.33333 7.33333V6C1.33333 5.64638 1.47381 5.30724 1.72386 5.05719C1.97391 4.80714 2.31305 4.66667 2.66667 4.66667H7.33333C8.53451 4.7122 9.71375 4.33602 10.6667 3.60333V9.73333Z" fill="#8B2AE1"/>
<path d="M15.9434 10.301C15.9043 10.3794 15.8501 10.4493 15.784 10.5068C15.7178 10.5642 15.641 10.608 15.5579 10.6358C15.4749 10.6635 15.3871 10.6746 15.2997 10.6684C15.2124 10.6622 15.1271 10.6389 15.0487 10.5997L13.7154 9.93305C13.5571 9.85401 13.4368 9.71535 13.3808 9.54757C13.3247 9.37979 13.3377 9.19662 13.4167 9.03838C13.4958 8.88013 13.6344 8.75977 13.8022 8.70375C13.97 8.64774 14.1531 8.66068 14.3114 8.73971L15.6447 9.40638C15.8021 9.48536 15.9219 9.62344 15.9779 9.79045C16.0338 9.95745 16.0214 10.1398 15.9434 10.2977V10.301ZM13.4167 4.30105C13.3775 4.2227 13.3542 4.1374 13.348 4.05002C13.3418 3.96265 13.3529 3.87491 13.3806 3.79182C13.4084 3.70873 13.4522 3.63193 13.5097 3.56579C13.5671 3.49965 13.637 3.44548 13.7154 3.40638L15.0487 2.73971C15.207 2.66068 15.3901 2.64774 15.5579 2.70375C15.7257 2.75976 15.8643 2.88013 15.9434 3.03838C16.0224 3.19662 16.0354 3.37979 15.9793 3.54757C15.9233 3.71535 15.803 3.85401 15.6447 3.93305L14.3114 4.59971C14.233 4.63888 14.1477 4.66223 14.0604 4.66842C13.973 4.67461 13.8852 4.66352 13.8022 4.63578C13.7191 4.60804 13.6423 4.5642 13.5761 4.50677C13.51 4.44933 13.4558 4.37943 13.4167 4.30105ZM13.3434 6.66638C13.3434 6.48957 13.4136 6.32 13.5386 6.19497C13.6637 6.06995 13.8332 5.99971 14.0101 5.99971H15.3434C15.5202 5.99971 15.6898 6.06995 15.8148 6.19497C15.9398 6.32 16.0101 6.48957 16.0101 6.66638C16.0101 6.84319 15.9398 7.01276 15.8148 7.13778C15.6898 7.26281 15.5202 7.33305 15.3434 7.33305H14.0101C13.8332 7.33305 13.6637 7.26281 13.5386 7.13778C13.4136 7.01276 13.3434 6.84319 13.3434 6.66638Z" fill="#8B2AE1"/>
</g>
<defs>
<clipPath id="clip0_1754_7656">
<rect width="16" height="16" fill="white"/>
</clipPath>
</defs>
</svg>
