<svg width="23" height="22" viewBox="0 0 23 22" fill="none" xmlns="http://www.w3.org/2000/svg">
<g clip-path="url(#clip0_32_199)">
<path d="M16.1081 0.306213C15.8684 0.306213 15.6385 0.401446 15.469 0.570962C15.2995 0.740478 15.2042 0.97039 15.2042 1.21012C15.2042 3.87575 12.8694 4.82575 10.6847 4.82575H4.35733C3.39841 4.82575 2.47876 5.20668 1.80069 5.88475C1.12263 6.56281 0.741699 7.48246 0.741699 8.44139L0.741699 10.2492C0.743674 10.7904 0.86776 11.3242 1.10471 11.8108C1.34166 12.2973 1.68537 12.7242 2.11022 13.0595L5.33898 20.2654C5.5686 20.7816 5.94294 21.2202 6.41668 21.5281C6.89042 21.8359 7.44324 21.9998 8.00822 22C8.45774 21.9997 8.90005 21.887 9.2949 21.6721C9.68974 21.4573 10.0246 21.1471 10.2689 20.7698C10.5133 20.3924 10.6594 19.96 10.694 19.5118C10.7285 19.0636 10.6505 18.6139 10.4668 18.2036L8.47825 13.8648H10.6847C12.8694 13.8648 15.2042 14.8148 15.2042 17.4805C15.2042 17.7202 15.2995 17.9501 15.469 18.1196C15.6385 18.2891 15.8684 18.3844 16.1081 18.3844C16.3479 18.3844 16.5778 18.2891 16.7473 18.1196C16.9168 17.9501 17.012 17.7202 17.012 17.4805V1.21012C17.012 0.97039 16.9168 0.740478 16.7473 0.570962C16.5778 0.401446 16.3479 0.306213 16.1081 0.306213ZM8.81993 18.9439C8.8798 19.0791 8.90498 19.2271 8.89318 19.3745C8.88139 19.5219 8.83299 19.6641 8.75238 19.788C8.67177 19.912 8.56149 20.0139 8.43154 20.0845C8.3016 20.155 8.15609 20.1921 8.00822 20.1922C7.79254 20.192 7.58155 20.1293 7.40087 20.0115C7.22019 19.8937 7.0776 19.726 6.99042 19.5287L4.45224 13.8648H6.48965L8.81993 18.9439ZM15.2042 13.5033C13.9128 12.5082 12.3139 11.9966 10.6847 12.057H4.35733C3.87787 12.057 3.41804 11.8666 3.07901 11.5275C2.73998 11.1885 2.54952 10.7287 2.54952 10.2492V8.44139C2.54952 7.96192 2.73998 7.5021 3.07901 7.16307C3.41804 6.82403 3.87787 6.63357 4.35733 6.63357H10.6847C12.3133 6.6953 13.9122 6.18526 15.2042 5.19184V13.5033Z" fill="#8B2AE1"/>
<path d="M22.3592 14.2734C22.3062 14.3797 22.2328 14.4745 22.1431 14.5523C22.0534 14.6302 21.9493 14.6896 21.8366 14.7273C21.724 14.7649 21.605 14.7799 21.4865 14.7715C21.3681 14.7631 21.2524 14.7315 21.1462 14.6784L19.3384 13.7744C19.1238 13.6673 18.9606 13.4793 18.8847 13.2518C18.8087 13.0243 18.8263 12.776 18.9334 12.5614C19.0406 12.3468 19.2286 12.1836 19.4561 12.1077C19.6836 12.0317 19.9319 12.0493 20.1465 12.1564L21.9543 13.0604C22.1677 13.1674 22.3301 13.3547 22.406 13.5811C22.4819 13.8075 22.4651 14.0548 22.3592 14.2689V14.2734ZM18.9334 6.13823C18.8803 6.032 18.8486 5.91634 18.8403 5.79787C18.8319 5.6794 18.8469 5.56044 18.8845 5.44779C18.9221 5.33513 18.9816 5.23099 19.0594 5.14132C19.1373 5.05165 19.2321 4.97821 19.3384 4.92518L21.1462 4.02128C21.3607 3.91412 21.6091 3.89658 21.8366 3.97252C22.0641 4.04846 22.2521 4.21167 22.3592 4.42623C22.4664 4.64079 22.4839 4.88913 22.408 5.11662C22.332 5.34411 22.1688 5.53211 21.9543 5.63927L20.1465 6.54318C20.0402 6.59629 19.9246 6.62794 19.8061 6.63634C19.6876 6.64473 19.5687 6.62969 19.456 6.59208C19.3434 6.55447 19.2392 6.49503 19.1496 6.41716C19.0599 6.33928 18.9864 6.2445 18.9334 6.13823ZM18.834 9.34529C18.834 9.10556 18.9292 8.87565 19.0987 8.70613C19.2682 8.53662 19.4982 8.44138 19.7379 8.44138H21.5457C21.7854 8.44138 22.0154 8.53662 22.1849 8.70613C22.3544 8.87565 22.4496 9.10556 22.4496 9.34529C22.4496 9.58502 22.3544 9.81494 22.1849 9.98445C22.0154 10.154 21.7854 10.2492 21.5457 10.2492H19.7379C19.4982 10.2492 19.2682 10.154 19.0987 9.98445C18.9292 9.81494 18.834 9.58502 18.834 9.34529Z" fill="#8B2AE1"/>
</g>
<defs>
<clipPath id="clip0_32_199">
<rect width="21.6938" height="21.6938" fill="white" transform="translate(0.741699 0.306213)"/>
</clipPath>
</defs>
</svg>
