<svg width="60" height="60" viewBox="0 0 60 60" fill="none" xmlns="http://www.w3.org/2000/svg">
<g clip-path="url(#clip0_226_5309)">
<path d="M47.5 0H12.5C9.18601 0.00396964 6.00889 1.3222 3.66555 3.66555C1.3222 6.00889 0.00396964 9.18601 0 12.5L0 47.5C0.00396964 50.814 1.3222 53.9911 3.66555 56.3345C6.00889 58.6778 9.18601 59.996 12.5 60H47.5C50.814 59.996 53.9911 58.6778 56.3345 56.3345C58.6778 53.9911 59.996 50.814 60 47.5V12.5C59.996 9.18601 58.6778 6.00889 56.3345 3.66555C53.9911 1.3222 50.814 0.00396964 47.5 0V0ZM12.5 5H47.5C49.4891 5 51.3968 5.79018 52.8033 7.1967C54.2098 8.60322 55 10.5109 55 12.5V47.5C54.9957 48.6137 54.7393 49.712 54.25 50.7125L31.3425 27.805C30.1817 26.6439 28.8036 25.7229 27.2868 25.0945C25.77 24.4661 24.1443 24.1427 22.5025 24.1427C20.8607 24.1427 19.235 24.4661 17.7182 25.0945C16.2014 25.7229 14.8233 26.6439 13.6625 27.805L5 36.465V12.5C5 10.5109 5.79018 8.60322 7.1967 7.1967C8.60322 5.79018 10.5109 5 12.5 5ZM12.5 55C10.5109 55 8.60322 54.2098 7.1967 52.8033C5.79018 51.3968 5 49.4891 5 47.5V43.535L17.195 31.34C17.8915 30.6431 18.7185 30.0902 19.6288 29.713C20.539 29.3358 21.5147 29.1416 22.5 29.1416C23.4853 29.1416 24.461 29.3358 25.3712 29.713C26.2815 30.0902 27.1085 30.6431 27.805 31.34L50.7125 54.25C49.712 54.7393 48.6137 54.9957 47.5 55H12.5Z" fill="#8B2AE1" fill-opacity="0.3"/>
<path d="M40 26.25C41.7306 26.25 43.4223 25.7368 44.8612 24.7754C46.3002 23.8139 47.4217 22.4473 48.0839 20.8485C48.7462 19.2496 48.9195 17.4903 48.5819 15.793C48.2443 14.0956 47.4109 12.5365 46.1872 11.3128C44.9635 10.0891 43.4044 9.25575 41.707 8.91813C40.0097 8.58051 38.2504 8.75379 36.6515 9.41606C35.0527 10.0783 33.6861 11.1998 32.7246 12.6388C31.7632 14.0777 31.25 15.7694 31.25 17.5C31.25 19.8206 32.1719 22.0462 33.8128 23.6872C35.4538 25.3281 37.6794 26.25 40 26.25ZM40 13.75C40.7417 13.75 41.4667 13.9699 42.0834 14.382C42.7001 14.794 43.1807 15.3797 43.4645 16.0649C43.7484 16.7502 43.8226 17.5042 43.6779 18.2316C43.5333 18.959 43.1761 19.6272 42.6516 20.1517C42.1272 20.6761 41.459 21.0333 40.7316 21.1779C40.0042 21.3226 39.2502 21.2484 38.5649 20.9646C37.8797 20.6807 37.294 20.2001 36.882 19.5834C36.4699 18.9667 36.25 18.2417 36.25 17.5C36.25 16.5054 36.6451 15.5516 37.3483 14.8484C38.0516 14.1451 39.0054 13.75 40 13.75Z" fill="#8B2AE1" fill-opacity="0.3"/>
</g>
<defs>
<clipPath id="clip0_226_5309">
<rect width="60" height="60" fill="white"/>
</clipPath>
</defs>
</svg>
