<svg width="23" height="31" viewBox="0 0 23 31" fill="none" xmlns="http://www.w3.org/2000/svg">
<path d="M20.4444 3.90342C20.4444 3.89308 20.4444 3.88533 20.4444 3.875V1.29167C20.4444 0.949095 20.3098 0.620555 20.0702 0.37832C19.8306 0.136086 19.5056 0 19.1667 0C18.8278 0 18.5028 0.136086 18.2631 0.37832C18.0235 0.620555 17.8889 0.949095 17.8889 1.29167V2.7125C17.4683 2.62617 17.0402 2.5829 16.6111 2.58333H15.3333V1.29167C15.3333 0.949095 15.1987 0.620555 14.9591 0.37832C14.7195 0.136086 14.3944 0 14.0556 0C13.7167 0 13.3917 0.136086 13.152 0.37832C12.9124 0.620555 12.7778 0.949095 12.7778 1.29167V2.58333H10.2222V1.29167C10.2222 0.949095 10.0876 0.620555 9.84797 0.37832C9.60834 0.136086 9.28333 0 8.94444 0C8.60556 0 8.28055 0.136086 8.04092 0.37832C7.80129 0.620555 7.66667 0.949095 7.66667 1.29167V2.58333H6.38889C5.95975 2.5829 5.53166 2.62617 5.11111 2.7125V1.29167C5.11111 0.949095 4.97649 0.620555 4.73686 0.37832C4.49723 0.136086 4.17222 0 3.83333 0C3.49445 0 3.16944 0.136086 2.92981 0.37832C2.69018 0.620555 2.55556 0.949095 2.55556 1.29167V3.875V3.90342C1.76434 4.50065 1.1215 5.27586 0.677944 6.16769C0.234386 7.05951 0.00227997 8.04347 0 9.04167V24.5417C0.00202893 26.2539 0.675794 27.8954 1.8735 29.1061C3.07121 30.3169 4.69507 30.9979 6.38889 31H16.6111C18.3049 30.9979 19.9288 30.3169 21.1265 29.1061C22.3242 27.8954 22.998 26.2539 23 24.5417V9.04167C22.9977 8.04347 22.7656 7.05951 22.3221 6.16769C21.8785 5.27586 21.2357 4.50065 20.4444 3.90342ZM20.4444 24.5417C20.4444 25.5694 20.0406 26.555 19.3217 27.2817C18.6028 28.0084 17.6278 28.4167 16.6111 28.4167H6.38889C5.37223 28.4167 4.3972 28.0084 3.67831 27.2817C2.95942 26.555 2.55556 25.5694 2.55556 24.5417V9.04167C2.55556 8.01395 2.95942 7.02833 3.67831 6.30163C4.3972 5.57492 5.37223 5.16667 6.38889 5.16667H16.6111C17.6278 5.16667 18.6028 5.57492 19.3217 6.30163C20.0406 7.02833 20.4444 8.01395 20.4444 9.04167V24.5417ZM17.8889 10.3333C17.8889 10.6759 17.7543 11.0044 17.5146 11.2467C17.275 11.4889 16.95 11.625 16.6111 11.625H6.38889C6.05 11.625 5.72499 11.4889 5.48536 11.2467C5.24573 11.0044 5.11111 10.6759 5.11111 10.3333C5.11111 9.99076 5.24573 9.66222 5.48536 9.41999C5.72499 9.17775 6.05 9.04167 6.38889 9.04167H16.6111C16.95 9.04167 17.275 9.17775 17.5146 9.41999C17.7543 9.66222 17.8889 9.99076 17.8889 10.3333ZM17.8889 15.5C17.8889 15.8426 17.7543 16.1711 17.5146 16.4133C17.275 16.6556 16.95 16.7917 16.6111 16.7917H6.38889C6.05 16.7917 5.72499 16.6556 5.48536 16.4133C5.24573 16.1711 5.11111 15.8426 5.11111 15.5C5.11111 15.1574 5.24573 14.8289 5.48536 14.5867C5.72499 14.3444 6.05 14.2083 6.38889 14.2083H16.6111C16.95 14.2083 17.275 14.3444 17.5146 14.5867C17.7543 14.8289 17.8889 15.1574 17.8889 15.5ZM12.7778 20.6667C12.7778 21.0092 12.6432 21.3378 12.4035 21.58C12.1639 21.8222 11.8389 21.9583 11.5 21.9583H6.38889C6.05 21.9583 5.72499 21.8222 5.48536 21.58C5.24573 21.3378 5.11111 21.0092 5.11111 20.6667C5.11111 20.3241 5.24573 19.9956 5.48536 19.7533C5.72499 19.5111 6.05 19.375 6.38889 19.375H11.5C11.8389 19.375 12.1639 19.5111 12.4035 19.7533C12.6432 19.9956 12.7778 20.3241 12.7778 20.6667Z" fill="#110151"/>
</svg>
