<svg width="23" height="23" viewBox="0 0 23 23" fill="none" xmlns="http://www.w3.org/2000/svg">
<g clip-path="url(#clip0_226_4741)">
<path d="M21.9008 1.09988C21.2493 0.449359 20.3662 0.0839844 19.4456 0.0839844C18.5249 0.0839844 17.6418 0.449359 16.9903 1.09988L1.40397 16.6862C0.95763 17.13 0.603728 17.658 0.362742 18.2395C0.121755 18.821 -0.00153139 19.4445 1.4357e-05 20.0739V22.0414C1.4357e-05 22.2955 0.100981 22.5393 0.280704 22.719C0.460426 22.8987 0.704182 22.9997 0.958348 22.9997H2.92581C3.5552 23.0015 4.1787 22.8784 4.76021 22.6376C5.34171 22.3967 5.86967 22.043 6.31351 21.5967L21.9008 6.00942C22.551 5.35794 22.9162 4.4751 22.9162 3.55465C22.9162 2.6342 22.551 1.75136 21.9008 1.09988ZM4.95843 20.2416C4.41793 20.7785 3.68765 21.0808 2.92581 21.083H1.91668V20.0739C1.91571 19.6962 1.98966 19.3221 2.13426 18.9732C2.27885 18.6243 2.49122 18.3076 2.75906 18.0413L14.5878 6.21259L16.7919 8.41675L4.95843 20.2416ZM20.5448 4.65434L18.1432 7.05688L15.939 4.8575L18.3416 2.45496C18.4863 2.31055 18.658 2.19606 18.847 2.11802C19.036 2.03999 19.2385 1.99994 19.4429 2.00016C19.6474 2.00038 19.8498 2.04087 20.0386 2.11932C20.2274 2.19776 20.3989 2.31263 20.5433 2.45736C20.6877 2.60208 20.8022 2.77384 20.8803 2.96282C20.9583 3.15179 20.9984 3.35429 20.9981 3.55874C20.9979 3.76319 20.9574 3.9656 20.879 4.15441C20.8005 4.34321 20.6857 4.51472 20.5409 4.65913L20.5448 4.65434Z" fill="#8B2AE1"/>
</g>
<defs>
<clipPath id="clip0_226_4741">
<rect width="23" height="23" fill="white"/>
</clipPath>
</defs>
</svg>
