<svg width="27" height="28" viewBox="0 0 27 28" fill="none" xmlns="http://www.w3.org/2000/svg">
<path d="M13.926 5.12076L13.6996 4.63785L13.4733 5.12076L4.48091 24.3045L4.25312 24.7904L4.77169 24.6522L12.1818 22.6761L12.3674 22.6266L12.3674 22.4345L12.3674 14.1568H12.1174L12.3674 14.1568C12.3673 13.4211 12.9638 12.8246 13.6996 12.8246C14.4353 12.8246 15.0317 13.4211 15.0317 14.1568L15.0317 22.4345V22.6266L15.2173 22.6761L22.6276 24.6521L23.1461 24.7904L22.9183 24.3044L13.926 5.12076ZM11.777 2.46173L11.5507 2.35562L11.777 2.46173C12.5409 0.832266 14.8584 0.832245 15.6221 2.4618L15.8485 2.3557L15.6221 2.46181L26.0516 24.7113L26.2779 24.6052L26.0516 24.7113C26.8175 26.3451 25.3255 28.1292 23.5819 27.6642L13.764 25.0461L13.6996 25.0289L13.6352 25.0461L3.81719 27.6642L3.81717 27.6642C2.07379 28.1292 0.581666 26.3452 1.34753 24.7113L11.777 2.46173Z" fill="white" stroke="#CECECE" stroke-width="0.5"/>
</svg>
