<svg width="30" height="31" viewBox="0 0 30 31" fill="none" xmlns="http://www.w3.org/2000/svg">
<path d="M14.8788 20.6661C15.9138 20.6661 16.7538 21.5341 16.7538 22.6037C16.7538 23.6732 15.9138 24.5413 14.8788 24.5413C13.8438 24.5413 13.0038 23.6732 13.0038 22.6037C13.0038 21.5341 13.8438 20.6661 14.8788 20.6661ZM16.1288 18.0826C16.1288 17.3579 16.6388 16.5002 17.2888 16.1295C19.1638 15.0625 20.1725 12.8704 19.8 10.6745C19.4463 8.59089 17.7913 6.87933 15.7738 6.51377C14.2963 6.25025 12.7988 6.65844 11.6625 7.64275C10.5288 8.62835 9.87753 10.0699 9.87753 11.5993C9.87753 12.3137 10.4375 12.8911 11.1275 12.8911C11.8175 12.8911 12.3775 12.3137 12.3775 11.5993C12.3775 10.8346 12.7025 10.1138 13.27 9.6204C13.8463 9.12179 14.585 8.92028 15.3413 9.0585C16.325 9.23676 17.1638 10.1048 17.3363 11.1201C17.5275 12.2452 17.035 13.3225 16.0813 13.8651C14.6363 14.6879 13.6275 16.4214 13.6275 18.0813C13.6275 18.7956 14.1875 19.373 14.8775 19.373C15.5675 19.373 16.1275 18.7956 16.1275 18.0813L16.1288 18.0826ZM29.9988 24.5413V15.9383C29.9988 7.56912 23.8688 0.584678 16.0438 0.0343961C11.7 -0.262704 7.45003 1.37522 4.38504 4.54645C1.32004 7.71896 -0.264956 12.1122 0.0362936 16.6023C0.586293 24.81 7.60128 31 16.3538 31H23.75C27.1963 31 30 28.1026 30 24.5413H29.9988ZM15.875 2.61271C22.3938 3.06999 27.4988 8.92286 27.4988 15.937V24.54C27.4988 26.6765 25.8163 28.4152 23.7488 28.4152H16.3525C8.80878 28.4152 2.99504 23.3723 2.52879 16.4227C2.27754 12.678 3.59754 9.01458 6.15253 6.37168C8.50503 3.93674 11.6963 2.58171 15.0175 2.58171C15.3025 2.58171 15.5888 2.59204 15.8738 2.61142L15.875 2.61271Z" fill="#110151"/>
</svg>
