<svg width="21" height="21" viewBox="0 0 21 21" fill="none" xmlns="http://www.w3.org/2000/svg">
<path d="M9.5424 1.18297C9.82797 0.233765 11.172 0.233764 11.4576 1.18297L13.0922 6.61636C13.2194 7.03897 13.6085 7.32827 14.0498 7.32827H19.4939C20.4439 7.32827 20.8585 8.52854 20.1112 9.11499L15.5778 12.6722C15.254 12.9263 15.1189 13.3528 15.2375 13.747L16.9374 19.3971C17.2187 20.3321 16.1306 21.0747 15.3624 20.4719L11.1173 17.1409C10.7549 16.8566 10.2451 16.8566 9.88269 17.1409L5.63755 20.4719C4.86938 21.0747 3.78134 20.3321 4.06264 19.3971L5.76249 13.747C5.88108 13.3528 5.74603 12.9263 5.4222 12.6722L0.888835 9.11499C0.141449 8.52854 0.556145 7.32827 1.50615 7.32827H6.95015C7.39147 7.32827 7.78061 7.03897 7.90775 6.61637L9.5424 1.18297Z" fill="black"/>
</svg>
