<svg width="24" height="25" viewBox="0 0 24 25" fill="none" xmlns="http://www.w3.org/2000/svg">
<g clip-path="url(#clip0_1624_5588)">
<path d="M2.82133 17.1507C2.7098 17.1506 2.60045 17.1197 2.50541 17.0613C2.41036 17.003 2.33331 16.9195 2.28279 16.82C1.49536 15.2721 1.08684 13.5593 1.09085 11.8226C1.09085 5.7112 6.06289 0.739749 12.1737 0.739749C14.2902 0.738321 16.3625 1.34484 18.1443 2.48716C18.2676 2.57832 18.3516 2.71294 18.3794 2.86376C18.4072 3.01458 18.3766 3.17031 18.2938 3.29941C18.2111 3.42851 18.0823 3.52133 17.9337 3.55905C17.785 3.59678 17.6276 3.5766 17.4933 3.50261C15.9062 2.48452 14.0599 1.94406 12.1743 1.94559C6.72837 1.94559 2.29729 6.37607 2.29729 11.8226C2.29349 13.3701 2.65748 14.8963 3.35927 16.2754C3.40533 16.3674 3.42719 16.4695 3.42277 16.5722C3.41834 16.675 3.38778 16.7749 3.33399 16.8625C3.28019 16.9501 3.20494 17.0226 3.11534 17.073C3.02574 17.1234 2.92475 17.1502 2.82193 17.1507H2.82133Z" fill="#110151"/>
<path d="M2.82015 17.3623C2.66968 17.3627 2.5221 17.3211 2.39398 17.2421C2.26585 17.1632 2.16225 17.0502 2.09483 16.9157C1.29197 15.3383 0.875549 13.5927 0.879917 11.8227C0.879917 5.59709 5.94687 0.528323 12.1743 0.528323C14.3313 0.526922 16.4432 1.14497 18.2591 2.30898C18.441 2.42552 18.5691 2.60953 18.6153 2.82054C18.6615 3.03155 18.622 3.25226 18.5054 3.43413C18.3889 3.61599 18.2049 3.74412 17.9939 3.79031C17.7829 3.8365 17.5622 3.79697 17.3803 3.68043C15.8267 2.68447 14.0197 2.15578 12.1743 2.15727C6.84506 2.15727 2.50887 6.49285 2.50887 11.8227C2.50434 13.3368 2.85962 14.8303 3.54546 16.1801C3.60835 16.3041 3.63841 16.4422 3.63277 16.5812C3.62712 16.7202 3.58597 16.8554 3.51324 16.9739C3.44051 17.0925 3.33862 17.1904 3.21729 17.2584C3.09596 17.3264 2.95923 17.3622 2.82015 17.3623ZM12.1731 0.951425C6.17897 0.951425 1.30181 5.82798 1.30181 11.8227C1.2979 13.5262 1.69855 15.2063 2.47078 16.7247C2.5034 16.7893 2.55335 16.8436 2.61505 16.8815C2.67674 16.9194 2.74775 16.9394 2.82015 16.9392C2.88152 16.9394 2.94203 16.9249 2.99664 16.8969C3.0425 16.8737 3.08333 16.8417 3.11681 16.8027C3.1503 16.7638 3.17577 16.7185 3.19176 16.6697C3.20776 16.6209 3.21398 16.5694 3.21006 16.5181C3.20614 16.4669 3.19215 16.4169 3.16891 16.3711C2.45248 14.9622 2.08084 13.4033 2.08456 11.8227C2.08456 6.26196 6.61054 1.73416 12.1731 1.73416C14.0993 1.73275 15.9854 2.28473 17.607 3.32442C17.6943 3.38053 17.8004 3.39963 17.9018 3.37753C18.0033 3.35542 18.0918 3.29393 18.1479 3.20656C18.204 3.11919 18.2231 3.01312 18.201 2.91167C18.1789 2.81021 18.1174 2.7217 18.0301 2.66559C16.2818 1.54436 14.2482 0.949337 12.1713 0.951425H12.1731Z" fill="#110151"/>
<path d="M12.1717 22.9045C10.0555 22.9065 7.98331 22.3004 6.20177 21.1583C6.12846 21.1188 6.0641 21.0647 6.01271 20.9992C5.96132 20.9337 5.924 20.8583 5.90311 20.7777C5.88223 20.6971 5.87822 20.613 5.89134 20.5308C5.90445 20.4486 5.9344 20.37 5.97932 20.2999C6.02424 20.2298 6.08316 20.1698 6.15238 20.1235C6.2216 20.0772 6.29962 20.0458 6.38157 20.0311C6.46351 20.0164 6.54762 20.0188 6.62859 20.0381C6.70957 20.0575 6.78567 20.0933 6.85214 20.1434C8.43939 21.1612 10.2856 21.7017 12.1711 21.7005C17.6177 21.7005 22.0482 17.2694 22.0482 11.8234C22.0519 10.2759 21.6882 8.74951 20.9868 7.36999C20.9281 7.2291 20.9249 7.07124 20.9778 6.92808C21.0307 6.78493 21.1358 6.6671 21.272 6.59823C21.4082 6.52937 21.5654 6.51458 21.7121 6.55682C21.8587 6.59907 21.984 6.69524 22.0627 6.826C22.85 8.37417 23.2583 10.0872 23.254 11.824C23.2546 17.933 18.2831 22.9045 12.1717 22.9045Z" fill="#110151"/>
<path d="M12.1721 23.117C10.0153 23.1186 7.90339 22.5003 6.08791 21.3358C5.99786 21.2781 5.92006 21.2032 5.85895 21.1154C5.79784 21.0277 5.75461 20.9287 5.73173 20.8242C5.70886 20.7197 5.70679 20.6118 5.72564 20.5065C5.74449 20.4012 5.78391 20.3007 5.84161 20.2106C5.89932 20.1206 5.97418 20.0428 6.06196 19.9817C6.14973 19.9206 6.24869 19.8773 6.35317 19.8545C6.45764 19.8316 6.56561 19.8295 6.67089 19.8484C6.77617 19.8672 6.87671 19.9066 6.96676 19.9643C8.52006 20.9605 10.3268 21.4894 12.1721 21.4881C17.502 21.4881 21.8376 17.1519 21.8376 11.8226C21.8413 10.3083 21.4854 8.81466 20.7992 7.46469C20.7447 7.3689 20.7102 7.26305 20.6979 7.15356C20.6855 7.04406 20.6955 6.93319 20.7273 6.82767C20.759 6.72215 20.8118 6.62418 20.8826 6.53967C20.9533 6.45517 21.0404 6.38591 21.1387 6.33607C21.237 6.28624 21.3443 6.25687 21.4543 6.24975C21.5643 6.24263 21.6745 6.2579 21.7784 6.29465C21.8823 6.33139 21.9776 6.38885 22.0587 6.46352C22.1397 6.5382 22.2047 6.62855 22.2498 6.72909C23.0521 8.30685 23.4683 10.0526 23.4641 11.8226C23.4665 18.0501 18.4002 23.117 12.1721 23.117ZM6.52794 20.2587C6.49969 20.2587 6.47152 20.2618 6.44392 20.2678C6.36832 20.2842 6.2993 20.3228 6.24562 20.3785C6.19193 20.4343 6.15599 20.5047 6.14234 20.5808C6.12868 20.657 6.13793 20.7355 6.16891 20.8064C6.1999 20.8773 6.25123 20.9374 6.31639 20.9792C8.06359 22.1002 10.0962 22.6954 12.1721 22.6939C18.1669 22.6939 23.0434 17.8168 23.0434 11.8226C23.0476 10.119 22.6472 8.43872 21.8751 6.92009C21.8266 6.83011 21.745 6.7626 21.6475 6.73198C21.55 6.70136 21.4444 6.71004 21.3533 6.75618C21.2621 6.80231 21.1926 6.88225 21.1595 6.97893C21.1265 7.07561 21.1325 7.18139 21.1763 7.27368C21.893 8.6827 22.2647 10.2418 22.2607 11.8226C22.2607 17.3834 17.7353 21.9112 12.1721 21.9112C10.2458 21.9126 8.35968 21.3604 6.73828 20.3203C6.67551 20.2801 6.60251 20.2587 6.52794 20.2587Z" fill="#110151"/>
<path d="M16.0786 5.10821C15.9337 5.10554 15.7946 5.05088 15.6866 4.95419C15.5786 4.8575 15.509 4.72523 15.4904 4.58149C15.4717 4.43774 15.5054 4.29209 15.5852 4.1711C15.665 4.0501 15.7857 3.96181 15.9251 3.92232L18.26 3.30399L17.6417 0.97088C17.6128 0.820507 17.6421 0.664778 17.7236 0.53515C17.8051 0.405522 17.9327 0.311659 18.0808 0.272521C18.2288 0.233382 18.3862 0.251887 18.5211 0.324296C18.656 0.396705 18.7584 0.517622 18.8076 0.66262L19.5795 3.58021C19.6199 3.73473 19.5975 3.89895 19.5172 4.03701C19.4369 4.17507 19.3052 4.27573 19.151 4.31701L16.2334 5.08948C16.1828 5.10252 16.1308 5.10882 16.0786 5.10821Z" fill="#110151"/>
<path d="M16.0786 5.32231C15.8808 5.32211 15.6898 5.24997 15.5413 5.11934C15.3928 4.98872 15.2969 4.80853 15.2714 4.61239C15.246 4.41624 15.2928 4.21754 15.403 4.05334C15.5133 3.88913 15.6795 3.77064 15.8707 3.71996L18.0013 3.15603L17.4374 1.02601C17.4032 0.920768 17.3908 0.809662 17.401 0.699481C17.4113 0.5893 17.4438 0.482357 17.4968 0.385183C17.5497 0.288009 17.6219 0.202644 17.7089 0.134301C17.7959 0.0659582 17.896 0.0160717 18.0029 -0.0123114C18.1099 -0.0406945 18.2215 -0.0469779 18.3309 -0.0307793C18.4404 -0.0145807 18.5454 0.0237606 18.6395 0.0819032C18.7337 0.140046 18.815 0.216769 18.8785 0.307387C18.942 0.398006 18.9864 0.500618 19.0089 0.608956L19.7813 3.52655C19.8365 3.73542 19.8064 3.95762 19.6979 4.14438C19.5893 4.33114 19.4111 4.46719 19.2023 4.52265L16.2877 5.29209C16.2196 5.31086 16.1493 5.32102 16.0786 5.32231ZM18.2243 0.426418C18.1904 0.426416 18.1567 0.430887 18.124 0.439715C18.0238 0.466384 17.9383 0.531686 17.8862 0.621307C17.834 0.710928 17.8196 0.817556 17.846 0.917821L18.5187 3.45643L15.9801 4.12856C15.8884 4.15308 15.8087 4.21006 15.7559 4.28891C15.703 4.36776 15.6806 4.46312 15.6928 4.55724C15.705 4.65137 15.751 4.73787 15.8222 4.80066C15.8933 4.86345 15.9849 4.89825 16.0798 4.89861C16.1137 4.89843 16.1474 4.89396 16.1801 4.88531L19.0971 4.11345C19.1974 4.08679 19.2831 4.02139 19.3352 3.93163C19.3873 3.84187 19.4017 3.73509 19.3752 3.63474L18.6027 0.717149C18.5811 0.633105 18.5323 0.558598 18.4638 0.505322C18.3953 0.452045 18.3111 0.423017 18.2243 0.422791V0.426418Z" fill="#110151"/>
<path d="M6.78112 23.8486C6.65636 23.8484 6.53473 23.8096 6.4329 23.7376C6.33106 23.6655 6.25403 23.5637 6.21236 23.4461L5.2096 20.5992C5.15692 20.4484 5.16607 20.2829 5.23504 20.1388C5.30401 19.9948 5.42721 19.8839 5.5777 19.8304L8.42457 18.8276C8.57178 18.7878 8.7286 18.8051 8.86359 18.876C8.99858 18.947 9.10177 19.0663 9.15247 19.2101C9.20316 19.354 9.19762 19.5116 9.13694 19.6516C9.07627 19.7915 8.96496 19.9033 8.82531 19.9645L6.5472 20.7672L7.34989 23.0453C7.40253 23.1962 7.3933 23.3618 7.32421 23.5058C7.25512 23.6499 7.13179 23.7608 6.98119 23.8142C6.91698 23.8371 6.8493 23.8487 6.78112 23.8486Z" fill="#110151"/>
<path d="M6.7803 24.0598C6.61173 24.0597 6.44734 24.0073 6.30976 23.9099C6.17218 23.8125 6.06818 23.6748 6.01207 23.5158L5.00932 20.6696C4.9737 20.5687 4.95833 20.4618 4.96406 20.3549C4.96979 20.2481 4.99651 20.1434 5.04271 20.047C5.08891 19.9505 5.15367 19.864 5.23329 19.7926C5.31292 19.7211 5.40585 19.6661 5.50676 19.6305L8.35364 18.6278C8.55731 18.556 8.78113 18.5682 8.97587 18.6614C9.17061 18.7547 9.32031 18.9216 9.39205 19.1252C9.46379 19.3289 9.45168 19.5527 9.35839 19.7475C9.2651 19.9422 9.09827 20.0919 8.8946 20.1636L6.81597 20.8962L7.54853 22.9749C7.5926 23.0978 7.60639 23.2296 7.58876 23.3591C7.57113 23.4885 7.52259 23.6118 7.44723 23.7185C7.37188 23.8253 7.27193 23.9123 7.15585 23.9722C7.03976 24.0321 6.91095 24.0632 6.7803 24.0628V24.0598ZM8.62261 19.0043C8.57814 19.0044 8.534 19.0119 8.49206 19.0267L5.64518 20.0295C5.54737 20.0641 5.4673 20.1361 5.42253 20.2297C5.37777 20.3233 5.37199 20.4309 5.40643 20.5287L6.40918 23.3756C6.43618 23.452 6.4862 23.5181 6.55234 23.5648C6.61848 23.6116 6.69749 23.6367 6.77849 23.6367C6.82277 23.6368 6.86673 23.6292 6.90844 23.6143C6.95689 23.5973 7.00152 23.5709 7.03976 23.5366C7.07799 23.5024 7.1091 23.4609 7.13128 23.4145C7.15345 23.3682 7.16628 23.318 7.16901 23.2667C7.17174 23.2154 7.16433 23.1641 7.1472 23.1157L6.27439 20.6375L8.75256 19.7647C8.83922 19.7337 8.91218 19.6731 8.95862 19.5936C9.00506 19.5141 9.02201 19.4208 9.0065 19.33C8.99099 19.2393 8.94401 19.1569 8.87381 19.0973C8.80361 19.0378 8.71467 19.0049 8.62261 19.0043Z" fill="#110151"/>
<path d="M9.64271 14.8001C9.5762 14.7948 9.50931 14.8034 9.44627 14.8252C9.38322 14.847 9.32538 14.8817 9.27637 14.927C9.22737 14.9722 9.18825 15.0272 9.16151 15.0883C9.13476 15.1494 9.12096 15.2154 9.12096 15.2821C9.12096 15.3488 9.13476 15.4148 9.16151 15.476C9.18825 15.5371 9.22737 15.592 9.27637 15.6373C9.32538 15.6826 9.38322 15.7172 9.44627 15.739C9.50931 15.7609 9.5762 15.7694 9.64271 15.7642H10.1099V16.4036C10.1047 16.4702 10.1132 16.537 10.135 16.6001C10.1569 16.6631 10.1915 16.721 10.2368 16.77C10.2821 16.819 10.337 16.8581 10.3981 16.8848C10.4592 16.9116 10.5252 16.9254 10.592 16.9254C10.6587 16.9254 10.7247 16.9116 10.7858 16.8848C10.8469 16.8581 10.9018 16.819 10.9471 16.77C10.9924 16.721 11.027 16.6631 11.0489 16.6001C11.0707 16.537 11.0793 16.4702 11.074 16.4036V15.7642H11.728V16.4036C11.7227 16.4702 11.7313 16.537 11.7531 16.6001C11.7749 16.6631 11.8096 16.721 11.8549 16.77C11.9001 16.819 11.9551 16.8581 12.0162 16.8848C12.0773 16.9116 12.1433 16.9254 12.21 16.9254C12.2767 16.9254 12.3427 16.9116 12.4039 16.8848C12.465 16.8581 12.5199 16.819 12.5652 16.77C12.6105 16.721 12.6451 16.6631 12.6669 16.6001C12.6888 16.537 12.6973 16.4702 12.6921 16.4036V15.7642H13.2693C13.8544 15.7635 14.4153 15.5308 14.829 15.1171C15.2427 14.7034 15.4754 14.1425 15.4761 13.5574V13.402C15.4762 13.0455 15.3899 12.6943 15.2245 12.3785C15.0591 12.0627 14.8196 11.7917 14.5265 11.5887C14.8589 11.2908 15.093 10.899 15.1977 10.4651C15.3025 10.0313 15.2731 9.5758 15.1134 9.15902C14.9537 8.74223 14.6711 8.38378 14.3032 8.1311C13.9352 7.87841 13.4993 7.74341 13.0529 7.74396H12.6902V7.23805C12.6955 7.17154 12.687 7.10466 12.6651 7.04161C12.6433 6.97857 12.6087 6.92072 12.5634 6.87172C12.5181 6.82271 12.4632 6.78361 12.402 6.75686C12.3409 6.73012 12.2749 6.71631 12.2082 6.71631C12.1415 6.71631 12.0755 6.73012 12.0144 6.75686C11.9533 6.78361 11.8983 6.82271 11.853 6.87172C11.8078 6.92072 11.7731 6.97857 11.7513 7.04161C11.7295 7.10466 11.7209 7.17154 11.7262 7.23805V7.74396H11.0722V7.23805C11.0775 7.17154 11.0689 7.10466 11.0471 7.04161C11.0252 6.97857 10.9906 6.92072 10.9453 6.87172C10.9 6.82271 10.8451 6.78361 10.784 6.75686C10.7229 6.73012 10.6569 6.71631 10.5901 6.71631C10.5234 6.71631 10.4574 6.73012 10.3963 6.75686C10.3352 6.78361 10.2803 6.82271 10.235 6.87172C10.1897 6.92072 10.1551 6.97857 10.1332 7.04161C10.1114 7.10466 10.1028 7.17154 10.1081 7.23805V7.74396H9.64089C9.57438 7.73869 9.5075 7.74724 9.44445 7.76907C9.38141 7.79091 9.32356 7.82555 9.27456 7.87083C9.22555 7.9161 9.18644 7.97103 9.15969 8.03216C9.13295 8.09328 9.11914 8.15928 9.11914 8.22599C9.11914 8.29271 9.13295 8.35871 9.15969 8.41983C9.18644 8.48096 9.22555 8.53588 9.27456 8.58116C9.32356 8.62644 9.38141 8.66108 9.44445 8.68291C9.5075 8.70475 9.57438 8.7133 9.64089 8.70803H10.1081V14.8001H9.64271ZM13.0529 8.71045C13.3825 8.71045 13.6986 8.84137 13.9316 9.07443C14.1647 9.30748 14.2956 9.62357 14.2956 9.95316C14.2956 10.2827 14.1647 10.5988 13.9316 10.8319C13.6986 11.0649 13.3825 11.1959 13.0529 11.1959H11.074V8.71045H13.0529ZM11.074 12.1599H13.2693C13.5987 12.1603 13.9145 12.2912 14.1474 12.5241C14.3804 12.7569 14.5115 13.0727 14.512 13.402V13.5574C14.5117 13.8869 14.3807 14.2028 14.1477 14.4358C13.9147 14.6687 13.5988 14.7998 13.2693 14.8001H11.074V12.1599Z" fill="#110151"/>
<path d="M12.2096 17.0978C12.0257 17.0975 11.8495 17.0243 11.7195 16.8942C11.5895 16.7641 11.5165 16.5878 11.5163 16.4039V15.976H11.283V16.4039C11.2857 16.4967 11.2698 16.5891 11.2362 16.6757C11.2026 16.7622 11.1519 16.8411 11.0872 16.9077C11.0226 16.9744 10.9452 17.0273 10.8597 17.0635C10.7742 17.0996 10.6822 17.1183 10.5894 17.1183C10.4966 17.1183 10.4047 17.0996 10.3191 17.0635C10.2336 17.0273 10.1562 16.9744 10.0916 16.9077C10.0269 16.8411 9.97624 16.7622 9.94262 16.6757C9.90899 16.5891 9.89308 16.4967 9.89582 16.4039V15.976H9.64015C9.54734 15.9787 9.45492 15.9628 9.36838 15.9292C9.28183 15.8956 9.20293 15.8449 9.13631 15.7802C9.0697 15.7156 9.01674 15.6382 8.98057 15.5527C8.94441 15.4671 8.92578 15.3752 8.92578 15.2824C8.92578 15.1895 8.94441 15.0976 8.98057 15.0121C9.01674 14.9266 9.0697 14.8492 9.13631 14.7845C9.20293 14.7199 9.28183 14.6692 9.36838 14.6356C9.45492 14.602 9.54734 14.5861 9.64015 14.5888H9.89582V8.92226H9.64015C9.54734 8.925 9.45492 8.90909 9.36838 8.87546C9.28183 8.84184 9.20293 8.79119 9.13631 8.72651C9.0697 8.66184 9.01674 8.58445 8.98057 8.49894C8.94441 8.41342 8.92578 8.32152 8.92578 8.22868C8.92578 8.13583 8.94441 8.04393 8.98057 7.95841C9.01674 7.8729 9.0697 7.79551 9.13631 7.73083C9.20293 7.66616 9.28183 7.61551 9.36838 7.58188C9.45492 7.54826 9.54734 7.53235 9.64015 7.53509H9.89582V7.24073C9.89308 7.14793 9.90899 7.05551 9.94262 6.96897C9.97624 6.88243 10.0269 6.80351 10.0916 6.7369C10.1562 6.67028 10.2336 6.61732 10.3191 6.58116C10.4047 6.545 10.4966 6.52637 10.5894 6.52637C10.6822 6.52637 10.7742 6.545 10.8597 6.58116C10.9452 6.61732 11.0226 6.67028 11.0872 6.7369C11.1519 6.80351 11.2026 6.88243 11.2362 6.96897C11.2698 7.05551 11.2857 7.14793 11.283 7.24073V7.53509H11.5139V7.24073C11.5111 7.14793 11.5271 7.05551 11.5607 6.96897C11.5943 6.88243 11.645 6.80351 11.7096 6.7369C11.7743 6.67028 11.8517 6.61732 11.9372 6.58116C12.0227 6.545 12.1146 6.52637 12.2075 6.52637C12.3003 6.52637 12.3922 6.545 12.4777 6.58116C12.5632 6.61732 12.6406 6.67028 12.7053 6.7369C12.77 6.80351 12.8206 6.88243 12.8543 6.96897C12.8879 7.05551 12.9038 7.14793 12.9011 7.24073V7.53509H13.0503C13.5176 7.5357 13.9746 7.67169 14.3662 7.9266C14.7578 8.18151 15.0671 8.54442 15.2568 8.97143C15.4464 9.39845 15.5083 9.87127 15.4349 10.3327C15.3615 10.7941 15.1559 11.2244 14.8431 11.5715C15.1068 11.7981 15.3186 12.079 15.4639 12.395C15.6092 12.7109 15.6847 13.0545 15.6851 13.4023V13.5576C15.6841 14.1986 15.4291 14.813 14.9759 15.2662C14.5227 15.7194 13.9083 15.9744 13.2673 15.9754H12.9017V16.4033C12.9017 16.5871 12.8288 16.7634 12.6991 16.8935C12.5694 17.0237 12.3934 17.0972 12.2096 17.0978ZM10.8599 15.5529H11.937V16.4039C11.9353 16.4405 11.941 16.4771 11.9538 16.5114C11.9666 16.5457 11.9862 16.5771 12.0115 16.6036C12.0368 16.6301 12.0672 16.6512 12.1009 16.6656C12.1346 16.6801 12.1708 16.6875 12.2075 16.6875C12.2441 16.6875 12.2804 16.6801 12.314 16.6656C12.3477 16.6512 12.3781 16.6301 12.4034 16.6036C12.4287 16.5771 12.4483 16.5457 12.4612 16.5114C12.474 16.4771 12.4797 16.4405 12.478 16.4039V15.5529H13.2667C13.7957 15.5529 14.3031 15.3427 14.6771 14.9687C15.0512 14.5946 15.2614 14.0873 15.2614 13.5582V13.4029C15.261 13.0809 15.1827 12.7638 15.0331 12.4787C14.8835 12.1935 14.6672 11.9488 14.4025 11.7655L14.1837 11.6132L14.3819 11.4349C14.6811 11.1652 14.8916 10.8112 14.9857 10.4196C15.0799 10.0279 15.0532 9.61696 14.9093 9.24075C14.7654 8.86454 14.5109 8.54072 14.1795 8.3119C13.848 8.08307 13.455 7.95997 13.0522 7.95879H12.4798V7.24073C12.4815 7.20414 12.4758 7.16757 12.463 7.13324C12.4502 7.09892 12.4305 7.06755 12.4052 7.04104C12.3799 7.01453 12.3495 6.99343 12.3159 6.97901C12.2822 6.96459 12.2459 6.95716 12.2093 6.95716C12.1726 6.95716 12.1364 6.96459 12.1027 6.97901C12.069 6.99343 12.0386 7.01453 12.0133 7.04104C11.9881 7.06755 11.9684 7.09892 11.9556 7.13324C11.9428 7.16757 11.9371 7.20414 11.9388 7.24073V7.95819H10.8599V7.24073C10.8616 7.20414 10.8559 7.16757 10.8431 7.13324C10.8303 7.09892 10.8106 7.06755 10.7854 7.04104C10.7601 7.01453 10.7297 6.99343 10.696 6.97901C10.6623 6.96459 10.626 6.95716 10.5894 6.95716C10.5528 6.95716 10.5165 6.96459 10.4828 6.97901C10.4491 6.99343 10.4187 7.01453 10.3935 7.04104C10.3682 7.06755 10.3485 7.09892 10.3357 7.13324C10.3229 7.16757 10.3172 7.20414 10.3189 7.24073V7.95819H9.64015C9.60355 7.95646 9.56699 7.96217 9.53266 7.97499C9.49834 7.9878 9.46697 8.00744 9.44046 8.03273C9.41395 8.05802 9.39285 8.08842 9.37843 8.1221C9.36401 8.15578 9.35657 8.19204 9.35657 8.22868C9.35657 8.26531 9.36401 8.30157 9.37843 8.33525C9.39285 8.36893 9.41395 8.39933 9.44046 8.42462C9.46697 8.4499 9.49834 8.46955 9.53266 8.48236C9.56699 8.49517 9.60355 8.50089 9.64015 8.49916H10.3189V15.0119H9.64015C9.60355 15.0102 9.56699 15.0159 9.53266 15.0287C9.49834 15.0415 9.46697 15.0612 9.44046 15.0864C9.41395 15.1117 9.39285 15.1421 9.37843 15.1758C9.36401 15.2095 9.35657 15.2458 9.35657 15.2824C9.35657 15.319 9.36401 15.3553 9.37843 15.389C9.39285 15.4226 9.41395 15.453 9.44046 15.4783C9.46697 15.5036 9.49834 15.5233 9.53266 15.5361C9.56699 15.5489 9.60355 15.5546 9.64015 15.5529H10.3189V16.4039C10.3172 16.4405 10.3229 16.4771 10.3357 16.5114C10.3485 16.5457 10.3682 16.5771 10.3935 16.6036C10.4187 16.6301 10.4491 16.6512 10.4828 16.6656C10.5165 16.6801 10.5528 16.6875 10.5894 16.6875C10.626 16.6875 10.6623 16.6801 10.696 16.6656C10.7297 16.6512 10.7601 16.6301 10.7854 16.6036C10.8106 16.5771 10.8303 16.5457 10.8431 16.5114C10.8559 16.4771 10.8616 16.4405 10.8599 16.4039V15.5529ZM13.2667 15.0119H10.8599V11.9486H13.2667C13.6522 11.949 14.0219 12.1022 14.2945 12.3747C14.5671 12.6473 14.7205 13.0168 14.721 13.4023V13.5576C14.7205 13.9428 14.5675 14.312 14.2954 14.5846C14.0233 14.8571 13.6543 15.0108 13.2692 15.0119H13.2667ZM12.2392 14.5888H13.2667C13.5401 14.5885 13.8022 14.4797 13.9955 14.2864C14.1888 14.0931 14.2976 13.831 14.2979 13.5576V13.4023C14.2976 13.129 14.1888 12.8669 13.9955 12.6737C13.8022 12.4805 13.5401 12.3719 13.2667 12.3717H11.283V14.5888H12.2392ZM13.0522 11.4077H10.8599V8.49916H13.0503C13.436 8.49916 13.8059 8.65237 14.0787 8.9251C14.3514 9.19783 14.5046 9.56772 14.5046 9.95342C14.5046 10.3391 14.3514 10.709 14.0787 10.9817C13.8059 11.2545 13.436 11.4077 13.0503 11.4077H13.0522ZM11.2848 10.9846H13.0522C13.3256 10.9846 13.5879 10.8759 13.7813 10.6826C13.9747 10.4892 14.0833 10.2269 14.0833 9.95342C14.0833 9.67994 13.9747 9.41766 13.7813 9.22428C13.5879 9.0309 13.3256 8.92226 13.0522 8.92226H11.283L11.2848 10.9846Z" fill="#110151"/>
</g>
<defs>
<clipPath id="clip0_1624_5588">
<rect width="22.5888" height="24.06" fill="white" transform="translate(0.87793)"/>
</clipPath>
</defs>
</svg>
