<svg width="13" height="13" viewBox="0 0 13 13" fill="none" xmlns="http://www.w3.org/2000/svg">
<g clip-path="url(#clip0_208_3100)">
<path d="M4.17509 5.01359C4.38688 5.22539 4.38688 5.56826 4.17509 5.77951C3.9633 5.9913 3.62042 5.9913 3.40917 5.77951C3.19738 5.56772 3.19738 5.22484 3.40917 5.01359C3.62096 4.8018 3.96384 4.8018 4.17509 5.01359ZM11.6783 8.30964L11.3722 8.61568C11.3576 9.28355 11.0987 9.94655 10.5949 10.4568L8.87946 12.1945C8.36867 12.7118 7.68726 12.9978 6.96034 12.9999H6.95113C6.22801 12.9999 5.54821 12.7183 5.03688 12.2069L1.01988 8.22405C0.667797 7.87251 0.497714 7.3888 0.551881 6.89534L0.966256 3.14918C0.993881 2.90218 1.18509 2.70555 1.43101 2.67197L5.16255 2.16172C5.66738 2.09455 6.17546 2.26626 6.53188 2.62268L10.5808 6.63751C10.7905 6.84714 10.9584 7.0833 11.0851 7.33518C11.525 6.70359 11.4632 5.82122 10.8999 5.25789L6.78809 1.24684C6.66405 1.1228 6.49288 1.06539 6.32713 1.08868L2.59559 1.59893C2.29821 1.63901 2.02576 1.43155 1.98513 1.1358C1.94505 0.83951 2.15251 0.56651 2.44826 0.525885L6.18034 0.0150936C6.67921 -0.0558647 7.19271 0.118552 7.54967 0.476594L11.6604 4.48764C12.7145 5.54118 12.7204 7.25393 11.6777 8.31018L11.6783 8.30964ZM9.81601 7.40505L5.76705 3.39022C5.64626 3.26943 5.47671 3.21364 5.30826 3.23476L1.99596 3.68814L1.62817 7.01397C1.6103 7.17809 1.66663 7.33951 1.78363 7.45597L5.80063 11.4388C6.10884 11.7476 6.51671 11.9161 6.95059 11.9161H6.95601C7.39259 11.915 7.80155 11.7433 8.10759 11.4323L9.82305 9.69468C10.4487 9.06093 10.4454 8.03339 9.81546 7.40397L9.81601 7.40505Z" fill="#8B2AE1"/>
</g>
<defs>
<clipPath id="clip0_208_3100">
<rect width="13" height="13" fill="white"/>
</clipPath>
</defs>
</svg>
