<svg width="21" height="21" viewBox="0 0 21 21" fill="none" xmlns="http://www.w3.org/2000/svg">
<path d="M10.5 21C4.71013 21 0 16.2899 0 10.5C0 4.71013 4.71013 0 10.5 0C16.2899 0 21 4.71013 21 10.5C21 16.2899 16.2899 21 10.5 21ZM10.5 1.75C5.67525 1.75 1.75 5.67525 1.75 10.5C1.75 15.3247 5.67525 19.25 10.5 19.25C15.3247 19.25 19.25 15.3247 19.25 10.5C19.25 5.67525 15.3247 1.75 10.5 1.75ZM14.875 10.5C14.875 10.0161 14.4839 9.625 14 9.625H11.375V5.25C11.375 4.76613 10.983 4.375 10.5 4.375C10.017 4.375 9.625 4.76613 9.625 5.25V10.5C9.625 10.9839 10.017 11.375 10.5 11.375H14C14.4839 11.375 14.875 10.9839 14.875 10.5Z" fill="#8B2AE1"/>
</svg>
