<?xml version="1.0" encoding="utf-8"?>
<!-- Generator: Adobe Illustrator 26.5.0, SVG Export Plug-In . SVG Version: 6.00 Build 0)  -->
<svg version="1.1" id="Capa_1" xmlns="http://www.w3.org/2000/svg" xmlns:xlink="http://www.w3.org/1999/xlink" x="0px" y="0px"
	 viewBox="0 0 24 25" style="enable-background:new 0 0 24 25;" xml:space="preserve">
<style type="text/css">
	.st0{clip-path:url(#SVGID_00000128486668377334638460000015942643984296569767_);}
	.st1{fill:#FFFFFF;}
</style>
<g>
	<g>
		<defs>
			<rect id="SVGID_1_" width="24" height="25"/>
		</defs>
		<clipPath id="SVGID_00000048491300517635441720000011437585935123424902_">
			<use xlink:href="#SVGID_1_"  style="overflow:visible;"/>
		</clipPath>
		<g style="clip-path:url(#SVGID_00000048491300517635441720000011437585935123424902_);">
			<path class="st1" d="M21,4.2h-3.1c-0.2-1.2-0.8-2.2-1.7-3C15.3,0.4,14.2,0,13,0h-2C9.8,0,8.7,0.4,7.8,1.2S6.3,3,6.1,4.2H3
				c-0.3,0-0.5,0.1-0.7,0.3C2.1,4.7,2,4.9,2,5.2c0,0.3,0.1,0.5,0.3,0.7C2.5,6.1,2.7,6.2,3,6.2h1v13.5c0,1.4,0.5,2.7,1.5,3.7
				S7.7,25,9,25h6c1.3,0,2.6-0.6,3.5-1.5c0.9-1,1.5-2.3,1.5-3.7V6.2h1c0.3,0,0.5-0.1,0.7-0.3S22,5.5,22,5.2s-0.1-0.5-0.3-0.7
				C21.5,4.3,21.3,4.2,21,4.2z M11,2.1h2c0.6,0,1.2,0.2,1.7,0.6s0.9,0.9,1.1,1.5H8.2C8.4,3.6,8.8,3,9.3,2.7C9.8,2.3,10.4,2.1,11,2.1
				z M18,19.8c0,0.8-0.3,1.6-0.9,2.2s-1.3,0.9-2.1,0.9H9c-0.8,0-1.6-0.3-2.1-0.9C6.3,21.4,6,20.6,6,19.8V6.2h12V19.8z"/>
			<path class="st1" d="M10,18.8c0.3,0,0.5-0.1,0.7-0.2c0.2-0.2,0.3-0.4,0.3-0.5v-4.7c0-0.2-0.1-0.4-0.3-0.5
				c-0.2-0.2-0.4-0.2-0.7-0.2s-0.5,0.1-0.7,0.2C9.1,12.8,9,13,9,13.3V18c0,0.2,0.1,0.4,0.3,0.5S9.7,18.8,10,18.8z"/>
			<path class="st1" d="M14,18.8c0.3,0,0.5-0.1,0.7-0.3c0.2-0.2,0.3-0.5,0.3-0.7v-6.2c0-0.3-0.1-0.5-0.3-0.7s-0.4-0.3-0.7-0.3
				s-0.5,0.1-0.7,0.3S13,11.4,13,11.6v6.2c0,0.3,0.1,0.5,0.3,0.7C13.5,18.6,13.7,18.8,14,18.8z"/>
		</g>
	</g>
</g>
</svg>
