<svg width="25" height="25" viewBox="0 0 25 25" fill="none" xmlns="http://www.w3.org/2000/svg">
<g clip-path="url(#clip0_685_2863)">
<path d="M17.708 8.33333H7.29134V7.29167C7.29102 6.13688 7.67449 5.01473 8.38146 4.10164C9.08843 3.18855 10.0788 2.53631 11.1969 2.24746C12.315 1.9586 13.4973 2.04952 14.5581 2.50592C15.6189 2.96232 16.4979 3.75831 17.057 4.76875C17.1234 4.88838 17.2127 4.99375 17.3198 5.07885C17.427 5.16396 17.5498 5.22713 17.6814 5.26476C17.8129 5.30238 17.9506 5.31373 18.0865 5.29815C18.2225 5.28257 18.354 5.24037 18.4736 5.17396C18.5933 5.10755 18.6986 5.01822 18.7837 4.91108C18.8688 4.80395 18.932 4.6811 18.9696 4.54955C19.0073 4.418 19.0186 4.28032 19.003 4.14439C18.9875 4.00845 18.9453 3.87692 18.8788 3.75729C18.0958 2.34304 16.865 1.22908 15.3799 0.590536C13.8948 -0.0480121 12.2396 -0.174947 10.6745 0.229684C9.10944 0.634314 7.72318 1.54757 6.73366 2.82589C5.74414 4.10421 5.20747 5.67511 5.20801 7.29167V8.775C4.28026 9.1799 3.4906 9.84638 2.93561 10.6929C2.38062 11.5395 2.08434 12.5294 2.08301 13.5417V19.7917C2.08466 21.1725 2.63393 22.4963 3.61032 23.4727C4.58671 24.4491 5.91051 24.9983 7.29134 25H17.708C19.0888 24.9983 20.4126 24.4491 21.389 23.4727C22.3654 22.4963 22.9147 21.1725 22.9163 19.7917V13.5417C22.9147 12.1608 22.3654 10.837 21.389 9.86065C20.4126 8.88425 19.0888 8.33499 17.708 8.33333ZM20.833 19.7917C20.833 20.6205 20.5038 21.4153 19.9177 22.0014C19.3317 22.5874 18.5368 22.9167 17.708 22.9167H7.29134C6.46254 22.9167 5.66768 22.5874 5.08163 22.0014C4.49558 21.4153 4.16634 20.6205 4.16634 19.7917V13.5417C4.16634 12.7129 4.49558 11.918 5.08163 11.332C5.66768 10.7459 6.46254 10.4167 7.29134 10.4167H17.708C18.5368 10.4167 19.3317 10.7459 19.9177 11.332C20.5038 11.918 20.833 12.7129 20.833 13.5417V19.7917Z" fill="#110151"/>
<path d="M12.4997 14.5833C12.2234 14.5833 11.9585 14.6931 11.7631 14.8884C11.5678 15.0838 11.458 15.3487 11.458 15.625V17.7083C11.458 17.9846 11.5678 18.2495 11.7631 18.4449C11.9585 18.6402 12.2234 18.75 12.4997 18.75C12.7759 18.75 13.0409 18.6402 13.2362 18.4449C13.4316 18.2495 13.5413 17.9846 13.5413 17.7083V15.625C13.5413 15.3487 13.4316 15.0838 13.2362 14.8884C13.0409 14.6931 12.7759 14.5833 12.4997 14.5833Z" fill="#110151"/>
</g>
<defs>
<clipPath id="clip0_685_2863">
<rect width="25" height="25" fill="white"/>
</clipPath>
</defs>
</svg>
