<svg width="18" height="20" viewBox="0 0 18 20" fill="none" xmlns="http://www.w3.org/2000/svg">
<path fill-rule="evenodd" clip-rule="evenodd" d="M9.00109 12.0001C8.6555 11.9997 8.31848 12.004 7.99028 12.0129L7.34573 12.037C7.02941 12.0522 6.72207 12.0721 6.42397 12.0969L5.84014 12.1527C2.12621 12.5578 0 13.7833 0 15.9974C0 18.1156 1.83487 19.3165 5.22291 19.7781L5.78589 19.8465L6.37584 19.9021C6.57695 19.9185 6.78251 19.9329 6.99248 19.9451L7.63554 19.9757C7.74491 19.9797 7.85536 19.9833 7.9669 19.9863L8.64911 19.9985L8.99989 20C9.23598 20.0001 9.46779 19.9981 9.69527 19.9942L10.3647 19.9762C10.4741 19.9722 10.5824 19.9677 10.6896 19.9626L11.3196 19.9262C11.5252 19.9119 11.7264 19.8956 11.9231 19.8772L12.4996 19.8154C16.0656 19.3839 17.9994 18.1773 17.9997 16.0002C18.0001 13.6166 15.5454 12.3845 11.2811 12.0775L10.6596 12.0399C10.2372 12.019 9.7987 12.0064 9.34459 12.0019L9.00109 12.0001ZM8.99907 14.0001C13.6025 14.0047 15.9999 14.8755 15.9997 15.9999C15.9996 16.6394 15.3164 17.1807 13.9128 17.5383L13.5121 17.6312C13.0237 17.7342 12.462 17.8177 11.8259 17.8791L11.2624 17.9262C11.1654 17.9331 11.0669 17.9396 10.9669 17.9455L10.3483 17.9757C10.2421 17.9797 10.1344 17.9833 10.0252 17.9863L9.35119 17.9985L9.00028 18C8.76334 18 8.53259 17.9979 8.30801 17.9937L7.65274 17.9751C7.5466 17.971 7.442 17.9664 7.33893 17.9614L6.73885 17.9252L6.17537 17.8778C3.35829 17.6046 2 16.8972 2 15.9974C2 15.0732 3.62025 14.3179 6.73875 14.079L7.341 14.0404C7.85745 14.0134 8.4103 13.9995 8.99907 14.0001Z" fill="#8B2AE1"/>
<path fill-rule="evenodd" clip-rule="evenodd" d="M9 0C6.23858 0 4 2.23858 4 5C4 7.76142 6.23858 10 9 10C11.7614 10 14 7.76142 14 5C14 2.23858 11.7614 0 9 0ZM9 2C10.6569 2 12 3.34315 12 5C12 6.65685 10.6569 8 9 8C7.34315 8 6 6.65685 6 5C6 3.34315 7.34315 2 9 2Z" fill="#BF8FEA"/>
</svg>
