<?xml version="1.0" encoding="utf-8"?>
<!-- Generator: Adobe Illustrator 27.3.1, SVG Export Plug-In . SVG Version: 6.00 Build 0)  -->
<svg version="1.1" id="Capa_1" xmlns:svgjs="http://svgjs.com/svgjs"
	 xmlns="http://www.w3.org/2000/svg" xmlns:xlink="http://www.w3.org/1999/xlink" x="0px" y="0px" viewBox="0 0 512 519"
	 style="enable-background:new 0 0 512 519;" xml:space="preserve">
<style type="text/css">
	.st0{fill:#8B2AE1;stroke:#FFFFFF;stroke-width:8;stroke-miterlimit:10;}
</style>
<path id="形状_00000047778740185672306210000011663331443058223012_" class="st0" d="M448.3,10.1c30.7,0,55.6,24.9,55.6,55.6
	v278.2c0,30.7-24.9,55.6-55.6,55.6H337.9c1.1,15.2,2.9,26.8,5,35.6l1.8,6.9l1.8,5.6c0.3,0.8,0.6,1.6,0.9,2.4l1.7,3.9l1.5,2.9l1.3,2
	l1.2,1.6c12.4,9.6,11.8,23.9,9.4,31c-2.4,7.3-10.6,19.4-26.7,19.4H171.2c-16.1,0-24.3-12.1-26.7-19.4c-2.3-7.1-3-21.5,9.4-31
	l1.2-1.6l1.3-2l1.5-2.9l1.7-3.9c3.6-8.9,7.7-24.5,9.5-50.5H58.7c-30.7,0-55.6-24.9-55.6-55.6V65.7C3.1,35,28,10.1,58.7,10.1H448.3z
	 M282.1,399.6h-57.2c-1.2,20.1-3.7,36.5-7,50l-1.5,5.6h74.2c-3.5-12.7-6.3-28.2-7.9-47.3L282.1,399.6z M448.3,316.1H58.7v27.8h389.5
	V316.1z M448.3,65.7H58.7v194.8h389.5V65.7z"/>
</svg>
