<?xml version="1.0" encoding="utf-8"?>
<!-- Generator: Adobe Illustrator 27.3.1, SVG Export Plug-In . SVG Version: 6.00 Build 0)  -->
<svg version="1.1" id="Capa_1" xmlns:svgjs="http://svgjs.com/svgjs"
	 xmlns="http://www.w3.org/2000/svg" xmlns:xlink="http://www.w3.org/1999/xlink" x="0px" y="0px" viewBox="0 0 512 519"
	 style="enable-background:new 0 0 512 519;" xml:space="preserve">
<style type="text/css">
	.st0{fill:#8B2AE1;}
</style>
<g>
	<path class="st0" d="M450.3,18.1H60.7c-28.5,0-51.6,23.1-51.6,51.6v278.2c0,28.5,23.1,51.6,51.6,51.6h114.7l-0.3,4.3
		c-1.9,27.5-6.4,43.3-9.8,51.7l0,0.1l-1.8,4.1l-1.7,3.2l-1.5,2.2l-1.5,2l-0.4,0.3c-10.5,8.1-10,20.5-8,26.6
		c2,6.2,9.1,16.6,22.9,16.6h164.6c13.8,0,20.9-10.5,22.9-16.6c2-6,2.6-18.3-8-26.6l-0.4-0.3l-1.7-2.3l-1.5-2.3l-1.6-3.1l-1.8-4.1
		l-1-2.6l-1.9-5.8l-1.8-6.9c-2.4-10-4.1-22.2-5.1-36.3l-0.3-4.3h114.7c28.5,0,51.6-23.1,51.6-51.6V69.7
		C501.9,41.2,478.8,18.1,450.3,18.1z M213.2,463.2l2.8-10.6c3.4-14.1,5.8-30.7,6.9-49.2l0.2-3.8h64.7l0.9,12
		c1.5,17.5,4.1,33.1,7.8,46.5l1.4,5.1H213.2z M454.2,351.9H56.7v-35.8h397.5V351.9z M454.2,268.5H56.7V65.7h397.5V268.5z"/>
</g>
</svg>
