<svg width="103" height="103" viewBox="0 0 103 103" fill="none" xmlns="http://www.w3.org/2000/svg">
<circle cx="51.5" cy="51.5" r="51.5" fill="#8B2AE1"/>
<path d="M70.0305 63.8158L70.056 63.805C71.942 63.0192 73.6779 61.902 75.1845 60.5043C77.3337 58.684 79.0696 56.4103 80.2725 53.84C82.3826 49.3997 82.8633 44.3366 81.6275 39.5666C81.0273 37.2017 80.0072 34.9687 78.6176 32.9782C78.0831 32.1521 77.4688 31.3825 76.784 30.6809C74.1395 27.8128 70.7536 25.7642 67.0163 24.7708C67.3482 24.9876 66.676 24.5671 67.0163 24.7708C66.4654 24.5541 67.3354 24.8532 66.7909 24.6365C65.806 24.4956 64.8084 24.307 63.8129 24.2312C61.3263 23.9581 58.8525 24.203 56.3574 24.0361C51.6331 23.9581 46.9066 24.0361 42.1844 24.0015C37.1559 24.1748 32.1296 24.0903 27.0989 24.1315H25.7652C25.4102 24.1231 25.057 24.1862 24.7258 24.3169C24.3947 24.4477 24.0921 24.6437 23.8353 24.8936C23.5785 25.1436 23.3725 25.4427 23.2292 25.7737C23.0859 26.1048 23.008 26.4614 23 26.8232V26.9186L23.1851 41.8508V42.0047C23.1298 43.0363 23.1255 44.0636 23.1298 45.0952V56.1481C23.1595 58.6426 23.1298 61.1328 23.1298 63.6294C23.0893 66.7329 24.1359 69.8863 25.6057 72.5758C26.5108 74.1863 27.6272 75.6635 28.924 76.9666C29.7234 77.8028 30.6027 78.5557 31.5489 79.2141C33.274 80.4671 35.185 81.4308 37.2091 82.0683C40.9401 83.2603 44.4966 82.9352 48.336 82.9829H55.6958C55.6958 80.3475 55.7299 77.7057 55.6958 75.0681C51.7054 75.0898 47.717 75.0681 43.7266 75.0898C42.8927 75.0938 42.0591 75.0533 41.2294 74.9684C41.0932 74.955 40.9582 74.9318 40.8252 74.8991C39.5587 74.5894 38.3317 74.1312 37.1687 73.5337C37.107 73.5012 37.0453 73.4644 36.9836 73.4275C35.6256 72.5958 34.4147 71.5371 33.4016 70.2959C33.3548 70.2374 33.308 70.1767 33.2654 70.116C32.81 69.469 32.4006 68.7896 32.0402 68.0831C31.4555 66.8227 31.0364 65.4892 30.7937 64.1171C30.7725 64.009 30.7575 63.8997 30.7491 63.7898C30.7235 63.4236 30.7087 63.0573 30.7001 62.6867C30.6874 53.3871 30.7001 44.0874 30.6853 34.7856C30.6841 34.4245 30.7529 34.0666 30.8875 33.7325C31.0221 33.3984 31.22 33.0946 31.4698 32.8384C31.7197 32.5822 32.0167 32.3787 32.3437 32.2394C32.6708 32.1001 33.0216 32.0279 33.3761 32.0267H33.3888C43.0941 32.0354 52.8008 32.0354 62.509 32.0267C64.5234 32.0376 66.5505 32.7268 68.2884 33.741C69.3685 34.3896 70.352 35.1924 71.2089 36.125C71.5365 36.4978 71.847 36.8792 72.1533 37.2715C72.2022 37.3365 72.2512 37.4037 72.2958 37.473L72.4107 37.6551C73.7459 39.8065 74.4432 42.3049 74.4187 44.8503C74.4187 45.3618 74.4059 45.8711 74.4017 46.3674C74.3676 47.7154 73.9529 48.9399 73.4296 50.1644C72.7357 51.6427 71.8007 52.9903 70.6643 54.1499C70.5974 54.2187 70.5264 54.2831 70.4516 54.3428C69.363 55.2868 68.151 56.0723 66.8504 56.6769V56.6769" fill="white"/>
<path d="M39.5637 40.8918C39.5127 49.0818 39.5637 57.2697 39.5403 65.4575C42.0652 65.5702 44.7071 65.6547 47.2256 65.4098C47.2287 65.4084 47.2314 65.4063 47.2336 65.4037C47.2358 65.4011 47.2374 65.398 47.2383 65.3947C47.2001 59.8364 47.2001 54.2738 47.2383 48.7069C53.0815 48.7221 58.9375 48.7416 64.7764 48.7069" fill="white"/>
<path d="M61.3516 57.8177C55.5063 57.8025 45.3834 57.783 39.5381 57.8177C39.5572 60.4184 39.5381 63.0191 39.5381 65.6198C47.9423 65.6458 56.3423 65.6068 64.7422 65.6393" fill="white"/>
<path d="M61.2155 40.9119C55.3702 40.8945 45.3834 40.8772 39.5381 40.9119C39.5572 43.5126 39.5381 46.1132 39.5381 48.7139C47.9423 48.7378 56.3423 48.7009 64.7422 48.7334" fill="white"/>
</svg>
