<svg width="77" height="77" viewBox="0 0 77 77" fill="none" xmlns="http://www.w3.org/2000/svg">
<circle cx="38.5" cy="38.5" r="38.5" fill="#88F4FF"/>
<g clip-path="url(#clip0_1798_6488)">
<path fill-rule="evenodd" clip-rule="evenodd" d="M28.2257 41.5882C33.7721 39.0698 45.2103 39.0698 50.7684 41.5882C53.8901 43.0055 57 45.5181 57 48.9326V58.4849H33.0224V51.1933L35.5877 49.9106C36.3348 50.3549 37.2081 50.5389 38.0709 50.434C38.9338 50.329 39.7375 49.9409 40.3562 49.3305C40.975 48.72 41.374 47.9217 41.4906 47.0603C41.6073 46.199 41.4351 45.3232 41.001 44.5702C40.5669 43.8171 39.8954 43.2293 39.0916 42.8985C38.2877 42.5678 37.397 42.5129 36.5586 42.7424C35.7202 42.972 34.9816 43.4729 34.4583 44.167C33.9351 44.861 33.6567 45.709 33.6667 46.5781L26.8377 51.1406C26.252 51.9956 27.031 53.6941 28.2492 53.577L31.2654 52.0776V58.4849H22V48.9326C22 45.5064 25.1099 43.0055 28.2257 41.5882ZM30.6797 23.5552C31.0956 18.5067 35.0547 15.9824 39.4649 15.9824C43.875 15.9824 47.84 18.5067 48.25 23.5552C48.4667 26.1908 47.9513 30.5833 46.8034 32.9612C46.1855 34.1092 45.3411 35.12 44.3213 35.9324C43.3016 36.7448 42.1276 37.3419 40.8705 37.6876C39.9413 37.8984 38.9767 37.8984 38.0475 37.6876C36.7895 37.3438 35.6148 36.7474 34.5948 35.9349C33.5747 35.1223 32.7309 34.1105 32.1146 32.9612C30.9433 30.6185 30.4455 26.1908 30.6622 23.5552H30.6797Z" fill="#110151"/>
</g>
<defs>
<clipPath id="clip0_1798_6488">
<rect width="35" height="42.4849" fill="white" transform="translate(22 16)"/>
</clipPath>
</defs>
</svg>
