<svg width="139" height="67" viewBox="0 0 139 67" fill="none" xmlns="http://www.w3.org/2000/svg">
<g clip-path="url(#clip0_217_1787)">
<path d="M82.1377 33.5405V21.2791H87.3505C88.5309 21.2791 89.4698 21.6285 90.1671 22.3275C90.8644 23.0265 91.2179 23.9937 91.2275 25.2292C91.2275 26.4647 90.8741 27.4319 90.1671 28.1309C89.4601 28.8299 88.5213 29.1794 87.3505 29.1794H84.6402V33.5405H82.1377ZM87.0293 23.5089H84.6137V26.9348H87.0293C87.4744 26.9526 87.9084 26.7908 88.237 26.4844C88.3947 26.319 88.517 26.122 88.596 25.9059C88.675 25.6899 88.7091 25.4594 88.696 25.2292C88.7139 25.0203 88.691 24.8098 88.6287 24.6099C88.5664 24.41 88.4658 24.2247 88.3329 24.0646C88.2 23.9044 88.0373 23.7727 87.8542 23.6769C87.6711 23.5811 87.4712 23.5231 87.266 23.5064C87.1856 23.5004 87.1048 23.5004 87.0244 23.5064L87.0293 23.5089Z" fill="#110151"/>
<path d="M95.6916 24.902C96.8285 24.902 97.6547 25.2515 98.17 25.9504V25.062H100.373V33.5382H98.17V32.6694C97.8975 33.0063 97.5461 33.2678 97.1482 33.4299C96.6898 33.627 96.1963 33.725 95.6989 33.7178C95.1592 33.7344 94.6221 33.6349 94.1226 33.4259C93.6232 33.2168 93.1726 32.9029 92.8002 32.5045C92.061 31.7071 91.6914 30.6406 91.6914 29.305C91.6914 27.9694 92.061 26.9029 92.8002 26.1055C93.1726 25.7098 93.6224 25.3983 94.1205 25.191C94.6186 24.9836 95.1538 24.8852 95.6916 24.902ZM96.0781 26.9497C95.8034 26.9385 95.5297 26.9894 95.2766 27.0988C95.0235 27.2081 94.7973 27.3732 94.6143 27.5822C94.2279 28.0672 94.0324 28.6813 94.0659 29.305C94.0296 29.9291 94.2254 30.5442 94.6143 31.0278C94.9943 31.4222 95.5113 31.6485 96.0537 31.6577C96.5961 31.6669 97.1203 31.4583 97.513 31.077C97.8916 30.6402 98.086 30.069 98.0541 29.4871V29.1106C98.0821 28.5337 97.888 27.9685 97.513 27.5354C97.3296 27.3379 97.1063 27.1832 96.8586 27.0821C96.6109 26.981 96.3446 26.9358 96.0781 26.9497Z" fill="#110151"/>
<path d="M105.085 24.9019C106.082 24.9019 106.872 25.148 107.457 25.6402C107.748 25.8859 107.987 26.1902 108.157 26.5341C108.327 26.878 108.426 27.254 108.447 27.6387L106.114 27.7691C106.083 27.0824 105.727 26.7379 105.054 26.7379C104.421 26.7379 104.104 26.9782 104.104 27.459C104.1 27.5756 104.131 27.6907 104.194 27.788C104.258 27.8852 104.35 27.9596 104.457 28.0004C104.872 28.1573 105.297 28.2888 105.727 28.3942C106.737 28.6666 107.462 28.98 107.902 29.3344C108.125 29.524 108.301 29.7646 108.415 30.0366C108.53 30.3086 108.58 30.6043 108.561 30.8997C108.579 31.2919 108.507 31.683 108.35 32.0419C108.194 32.4008 107.958 32.7176 107.66 32.9671C107.061 33.4593 106.211 33.7202 105.153 33.7202C104.095 33.7202 103.256 33.4741 102.65 33.0064C102.345 32.7609 102.094 32.452 101.915 32.1002C101.736 31.7484 101.633 31.3618 101.611 30.9661L103.962 30.8357C103.994 31.5347 104.397 31.8842 105.169 31.8842C105.439 31.8988 105.707 31.8274 105.935 31.6799C106.025 31.6168 106.097 31.5319 106.146 31.4331C106.195 31.3342 106.219 31.2245 106.215 31.1138C106.222 31.0038 106.199 30.8941 106.148 30.7971C106.096 30.7 106.019 30.6196 105.926 30.565C105.535 30.378 105.125 30.2376 104.703 30.1466C104.087 30.003 103.484 29.8054 102.901 29.5559C102.559 29.3894 102.27 29.1285 102.065 28.8028C101.872 28.4221 101.767 28.001 101.759 27.5722C101.744 27.1979 101.818 26.8255 101.974 26.4861C102.129 26.1466 102.362 25.8498 102.652 25.6205C103.234 25.143 104.045 24.9035 105.085 24.9019Z" fill="#110151"/>
<path d="M114.723 27.1316H112.76L112.745 30.277C112.733 30.4516 112.757 30.6269 112.817 30.7912C112.876 30.9554 112.97 31.1048 113.09 31.2294C113.34 31.4551 113.666 31.5726 113.999 31.5568C114.242 31.547 114.484 31.5199 114.723 31.4755V33.6044C114.291 33.6692 113.856 33.7021 113.419 33.7029C112.453 33.7029 111.705 33.4568 111.175 32.9645C110.646 32.4723 110.385 31.7709 110.395 30.843L110.412 27.1218H108.899V25.0618H110.428L110.443 22.261H112.793L112.776 25.0618H114.723V27.1316Z" fill="#110151"/>
<path d="M124.296 29.3099C124.318 29.9031 124.218 30.4944 124.001 31.0455C123.785 31.5967 123.457 32.0954 123.04 32.5094C122.617 32.9155 122.119 33.2319 121.575 33.4402C121.031 33.6485 120.451 33.7445 119.871 33.7228C118.691 33.7624 117.544 33.3254 116.68 32.507C116.266 32.0906 115.943 31.591 115.73 31.0401C115.517 30.4892 115.419 29.8991 115.443 29.3075C115.443 27.9949 115.855 26.9284 116.68 26.108C117.544 25.2926 118.689 24.8567 119.866 24.8946C120.447 24.8729 121.026 24.9689 121.57 25.1772C122.114 25.3855 122.612 25.7019 123.035 26.108C123.874 26.9054 124.294 27.9727 124.296 29.3099ZM121.351 27.5871C120.971 27.1871 120.451 26.9571 119.905 26.9479C119.358 26.9387 118.831 27.1509 118.438 27.5379L118.39 27.5871C118.024 28.0842 117.826 28.6887 117.826 29.3099C117.826 29.9312 118.024 30.5357 118.39 31.0327C118.784 31.431 119.316 31.6545 119.871 31.6545C120.425 31.6545 120.958 31.431 121.351 31.0327C121.717 30.5357 121.915 29.9312 121.915 29.3099C121.915 28.6887 121.717 28.0842 121.351 27.5871Z" fill="#110151"/>
<path d="M130.232 24.9829V27.3038C129.649 27.2726 129.076 27.4629 128.623 27.8378C128.427 28.0145 128.272 28.2334 128.17 28.4787C128.068 28.7239 128.02 28.9892 128.031 29.2555V33.5502H125.681V25.0617H127.949V26.0289C128.376 25.3316 129.137 24.9829 130.232 24.9829Z" fill="#110151"/>
<path d="M139 29.1154V30.0654H133.287C133.279 30.5344 133.453 30.9877 133.77 31.3279C133.937 31.4858 134.133 31.6077 134.347 31.6864C134.561 31.765 134.789 31.7988 135.016 31.7857C135.862 31.7857 136.371 31.4748 136.543 30.8529L138.908 30.9661C138.835 31.3697 138.681 31.7537 138.458 32.0948C138.234 32.4359 137.944 32.7269 137.606 32.9498C136.864 33.471 135.98 33.7406 135.079 33.7202C133.783 33.7202 132.742 33.3215 131.958 32.5241C131.174 31.7266 130.783 30.6552 130.784 29.3098C130.784 27.9561 131.176 26.8855 131.958 26.098C132.741 25.3104 133.767 24.9117 135.038 24.9019C136.247 24.9019 137.214 25.2784 137.937 26.0315C138.66 26.7846 139.014 27.8126 139 29.1154ZM136.183 27.2129C136.028 27.0597 135.844 26.9412 135.642 26.8649C135.44 26.7886 135.224 26.7562 135.009 26.7699C134.564 26.7521 134.13 26.9139 133.801 27.2203C133.481 27.5574 133.3 28.0064 133.294 28.4755H136.642C136.649 28.0109 136.486 27.5605 136.183 27.2129Z" fill="#110151"/>
<path d="M87.9103 35.581C89.2194 35.5464 90.4999 35.9752 91.5337 36.7944C92.023 37.1896 92.4302 37.6802 92.7313 38.2376C93.0324 38.795 93.2215 39.408 93.2874 40.0407L92.3066 40.1391C92.2529 39.615 92.097 39.1071 91.8481 38.6452C91.5992 38.1833 91.2624 37.7766 90.8573 37.4491C90.0097 36.7732 88.9572 36.4198 87.8813 36.4498C86.4448 36.4498 85.2861 36.9306 84.4053 37.8921C83.5244 38.8536 83.0847 40.176 83.0864 41.8595C83.0864 43.5527 83.5421 44.8801 84.4536 45.8416C85.3016 46.6622 86.4008 47.1607 87.5668 47.2534C88.7327 47.3462 89.8945 47.0276 90.8573 46.3511C91.6446 45.7314 92.1686 44.8276 92.3211 43.8259L93.3019 43.9071C93.1233 45.1366 92.4833 46.2475 91.5167 47.0057C90.4906 47.7806 89.2376 48.1795 87.961 48.1379C86.2556 48.1379 84.8562 47.58 83.7627 46.4643C82.6693 45.3485 82.1217 43.8136 82.1201 41.8595C82.1201 39.8905 82.6564 38.3548 83.7289 37.2522C84.8014 36.1496 86.1952 35.5925 87.9103 35.581Z" fill="#110151"/>
<path d="M98.6092 39.5482C99.2746 39.5316 99.9324 39.6955 100.515 40.0232C101.037 40.3128 101.458 40.7587 101.723 41.3005V39.6958H102.593V47.9899H101.723V46.4C101.46 46.9409 101.037 47.3847 100.515 47.67C99.7539 48.0704 98.8894 48.2203 98.041 48.0991C97.1926 47.9778 96.402 47.5915 95.7782 46.9932C95.0358 46.2187 94.6654 45.1752 94.667 43.8626C94.667 42.5311 95.0366 41.4802 95.7782 40.7172C96.1437 40.3317 96.5845 40.0285 97.0721 39.8271C97.5598 39.6257 98.0834 39.5307 98.6092 39.5482ZM98.6889 40.3677C98.2702 40.3518 97.853 40.4267 97.4649 40.5875C97.0767 40.7484 96.7266 40.9914 96.4376 41.3005C95.8579 41.924 95.568 42.7715 95.568 43.8429C95.568 44.9143 95.8579 45.7634 96.4376 46.3902C96.7253 46.7017 97.0749 46.947 97.4632 47.1096C97.8515 47.2722 98.2694 47.3483 98.6889 47.3328C99.0889 47.3527 99.4886 47.288 99.8627 47.1427C100.237 46.9974 100.577 46.7747 100.863 46.4886C101.404 45.9275 101.675 45.1383 101.675 44.121V43.5648C101.675 42.5491 101.406 41.7616 100.87 41.2021C100.584 40.9178 100.243 40.6969 99.8688 40.5533C99.4947 40.4097 99.0954 40.3465 98.6962 40.3677H98.6889Z" fill="#110151"/>
<path d="M109.129 39.5483C109.652 39.5315 110.173 39.6264 110.658 39.8269C111.143 40.0274 111.582 40.329 111.945 40.7124C112.697 41.4754 113.071 42.5214 113.071 43.843C113.071 45.1646 112.697 46.2254 111.945 46.9883C111.329 47.5846 110.546 47.9712 109.704 48.0946C108.862 48.2181 108.004 48.0723 107.247 47.6775C106.738 47.3988 106.323 46.9699 106.056 46.4469V52.1617H105.155V39.6959H106.008V41.3055C106.279 40.7682 106.699 40.3239 107.216 40.0282C107.8 39.6975 108.461 39.5318 109.129 39.5483ZM109.049 40.3678C108.65 40.3484 108.251 40.4124 107.877 40.5559C107.504 40.6994 107.162 40.9193 106.875 41.2022C106.324 41.7633 106.049 42.5509 106.049 43.5649V44.1383C106.049 45.154 106.32 45.9407 106.863 46.4986C107.15 46.7814 107.492 47.0014 107.865 47.1448C108.239 47.2883 108.638 47.3523 109.037 47.3329C109.452 47.3438 109.864 47.2679 110.249 47.1101C110.634 46.9522 110.982 46.7156 111.274 46.4149C111.863 45.8045 112.158 44.9521 112.158 43.8578C112.158 42.7634 111.863 41.9061 111.274 41.2859C110.984 40.9865 110.637 40.7506 110.255 40.5928C109.872 40.4349 109.462 40.3584 109.049 40.3678Z" fill="#110151"/>
<path d="M115.035 36.073C115.103 35.9714 115.203 35.897 115.319 35.8625C115.435 35.8279 115.559 35.8354 115.67 35.8835C115.785 35.9171 115.89 35.98 115.974 36.0661C116.059 36.1522 116.12 36.2587 116.153 36.3757C116.185 36.4897 116.186 36.6105 116.155 36.7247C116.124 36.839 116.062 36.9422 115.977 37.023C115.916 37.0875 115.843 37.139 115.763 37.1745C115.682 37.2099 115.596 37.2287 115.508 37.2296C115.42 37.2305 115.333 37.2136 115.252 37.1798C115.171 37.146 115.097 37.096 115.035 37.0328C114.973 36.9696 114.924 36.8944 114.891 36.8117C114.858 36.7289 114.841 36.6403 114.842 36.5509C114.843 36.4615 114.861 36.3732 114.896 36.2911C114.931 36.2091 114.981 36.1349 115.045 36.073H115.035ZM115.953 39.6958V47.9899H115.052V39.6958H115.953Z" fill="#110151"/>
<path d="M121.18 47.2393C121.465 47.2294 121.75 47.2023 122.032 47.1581V47.9949C121.691 48.0515 121.346 48.0786 121.001 48.0761C120.695 48.0955 120.388 48.0495 120.1 47.941C119.812 47.8325 119.55 47.6639 119.329 47.446C118.93 47.026 118.731 46.4 118.733 45.5682L118.75 40.5031H117.206V39.7008H118.75L118.767 36.7671H119.682L119.668 39.7008H121.994V40.5031H119.663L119.629 45.4033C119.632 46.6273 120.149 47.2393 121.18 47.2393Z" fill="#110151"/>
<path d="M126.746 39.5484C127.411 39.5318 128.069 39.6958 128.651 40.0234C129.173 40.3131 129.595 40.759 129.859 41.3008V39.6961H130.729V47.9902H129.859V46.4003C129.596 46.9411 129.174 47.385 128.651 47.6703C127.892 48.0678 127.03 48.2162 126.184 48.095C125.338 47.9739 124.549 47.5891 123.927 46.9934C123.184 46.219 122.814 45.1755 122.815 43.8628C122.815 42.5314 123.185 41.4805 123.927 40.7175C124.291 40.3339 124.73 40.0318 125.215 39.8305C125.701 39.6293 126.222 39.5332 126.746 39.5484ZM126.825 40.368C126.407 40.3521 125.989 40.427 125.601 40.5878C125.213 40.7486 124.863 40.9917 124.574 41.3008C123.994 41.9243 123.704 42.7717 123.704 43.8432C123.704 44.9146 123.994 45.7637 124.574 46.3905C124.862 46.702 125.211 46.9473 125.6 47.1099C125.988 47.2724 126.406 47.3485 126.825 47.3331C127.225 47.353 127.625 47.2883 127.999 47.143C128.373 46.9977 128.714 46.775 128.999 46.4889C129.54 45.9278 129.811 45.1385 129.811 44.1213V43.5651C129.811 42.5494 129.543 41.7618 129.007 41.2023C128.72 40.918 128.379 40.6972 128.005 40.5536C127.631 40.41 127.232 40.3468 126.833 40.368H126.825Z" fill="#110151"/>
<path d="M134.196 35.2537V47.9901H133.295V35.2537H134.196Z" fill="#110151"/>
<path d="M53.4164 45.2163L53.4454 45.2039C55.5872 44.3116 57.5584 43.0429 59.2694 41.4556C61.7101 39.3885 63.6814 36.8064 65.0474 33.8876C67.4437 28.8451 67.9895 23.0953 66.5862 17.6784C65.9046 14.9928 64.7461 12.457 63.1681 10.1965C62.5611 9.25836 61.8635 8.38441 61.0859 7.58767C58.0827 4.33065 54.2376 2.00415 49.9935 0.876099C50.3703 1.12221 49.607 0.64475 49.9935 0.876099C49.3679 0.629984 50.3558 0.969623 49.7375 0.723507C48.619 0.563532 47.4861 0.349412 46.3556 0.263272C43.5318 -0.0468338 40.7225 0.231277 37.889 0.0417678C32.524 -0.0468338 27.1566 0.0417678 21.794 0.00238929C16.0835 0.199282 10.3755 0.103297 4.66264 0.150059H3.14807C2.74486 0.140578 2.34377 0.212134 1.9677 0.360639C1.59164 0.509144 1.24798 0.731687 0.956361 1.01555C0.66474 1.29942 0.43087 1.63905 0.268115 2.01503C0.10536 2.39102 0.0169076 2.79599 0.0078125 3.20681L0.0078125 3.3151L0.217968 20.2725V20.4472C0.155163 21.6187 0.150332 22.7853 0.155163 23.9568V36.5087C0.188981 39.3415 0.155163 42.1693 0.155163 45.0046C0.109267 48.529 1.29773 52.1099 2.9669 55.1642C3.99476 56.9931 5.26254 58.6706 6.73522 60.1505C7.64307 61.1001 8.64162 61.9551 9.71605 62.7028C11.6752 64.1258 13.8453 65.2201 16.1439 65.9441C20.3809 67.2977 24.4197 66.9286 28.7798 66.9827H37.1378C37.1378 63.9899 37.1764 60.9898 37.1378 57.9946C32.6061 58.0192 28.0769 57.9946 23.5453 58.0192C22.5983 58.0237 21.6517 57.9777 20.7094 57.8814C20.5548 57.8661 20.4014 57.8398 20.2504 57.8026C18.8122 57.4509 17.4187 56.9306 16.098 56.2521C16.028 56.2151 15.9579 56.1733 15.8879 56.1315C14.3457 55.187 12.9705 53.9847 11.82 52.5751C11.7669 52.5086 11.7137 52.4397 11.6654 52.3708C11.1482 51.6361 10.6832 50.8646 10.274 50.0623C9.60999 48.6309 9.13404 47.1165 8.85852 45.5583C8.83435 45.4356 8.81741 45.3115 8.80779 45.1867C8.7788 44.7708 8.76189 44.3548 8.75223 43.934C8.73774 33.3732 8.75223 22.8124 8.73532 12.2491C8.73405 11.8389 8.81208 11.4326 8.96496 11.0531C9.11783 10.6737 9.34256 10.3287 9.62631 10.0378C9.91006 9.74683 10.2473 9.5157 10.6187 9.35755C10.9901 9.1994 11.3885 9.11733 11.791 9.11604H11.8055C22.827 9.12589 33.8502 9.12589 44.8749 9.11604C47.1624 9.12835 49.4645 9.911 51.438 11.0628C52.6647 11.7994 53.7815 12.7111 54.7546 13.7701C55.1266 14.1934 55.4793 14.6266 55.8271 15.072C55.8827 15.1459 55.9383 15.2222 55.989 15.3009L56.1194 15.5077C57.6358 17.9509 58.4276 20.7881 58.3997 23.6787C58.3997 24.2595 58.3853 24.8379 58.3804 25.4015C58.3418 26.9323 57.8707 28.3229 57.2765 29.7134C56.4885 31.3922 55.4267 32.9226 54.1362 34.2395C54.0603 34.3176 53.9796 34.3907 53.8947 34.4585C52.6584 35.5306 51.282 36.4226 49.8051 37.1092" fill="#110151"/>
<path d="M18.8179 19.1826C18.7599 28.4833 18.8179 37.7816 18.7913 47.0798C21.6586 47.2078 24.6588 47.3038 27.5188 47.0257C27.5223 47.024 27.5254 47.0216 27.5279 47.0187C27.5304 47.0157 27.5323 47.0122 27.5333 47.0084C27.4899 40.6964 27.4899 34.3794 27.5333 28.0575C34.1689 28.0748 40.8191 28.0969 47.4498 28.0575" fill="#110151"/>
<path d="M43.5599 38.4041C36.9219 38.3868 25.4261 38.3647 18.7881 38.4041C18.8098 41.3575 18.7881 44.3108 18.7881 47.2642C28.3321 47.2938 37.8712 47.2495 47.4104 47.2864" fill="#110151"/>
<path d="M43.4053 19.2066C36.7673 19.1869 25.4261 19.1672 18.7881 19.2066C18.8098 22.16 18.7881 25.1133 18.7881 28.0667C28.3321 28.0938 37.8712 28.052 47.4104 28.0889" fill="#110151"/>
<path d="M66.194 5.87731C65.7971 5.87718 65.4074 5.76993 65.0644 5.56645C64.7214 5.36298 64.4374 5.07056 64.2414 4.71895C64.0454 4.36733 63.9443 3.96908 63.9484 3.56472C63.9525 3.16036 64.0617 2.76433 64.2648 2.41693C64.4679 2.06953 64.7578 1.78317 65.1048 1.58698C65.4519 1.39079 65.8438 1.29179 66.2406 1.30004C66.6374 1.30829 67.025 1.4235 67.3639 1.63396C67.7028 1.84441 67.9809 2.14259 68.17 2.49814L67.4695 2.88454C67.3158 2.59581 67.072 2.36751 66.7767 2.23575C66.4814 2.104 66.1515 2.07632 65.839 2.15708C65.5265 2.23784 65.2494 2.42243 65.0514 2.68167C64.8535 2.9409 64.746 3.25998 64.746 3.58843C64.746 3.91689 64.8535 4.23596 65.0514 4.4952C65.2494 4.75443 65.5265 4.93903 65.839 5.01979C66.1515 5.10055 66.4814 5.07287 66.7767 4.94111C67.072 4.80936 67.3158 4.58106 67.4695 4.29232L68.17 4.67873C67.9778 5.04188 67.6925 5.34513 67.3446 5.55619C66.9966 5.76725 66.599 5.87823 66.194 5.87731Z" fill="#110151"/>
<path d="M66.1728 7.12255C65.4848 7.12255 64.8123 6.91469 64.2403 6.52527C63.6682 6.13584 63.2224 5.58233 62.9591 4.93474C62.6958 4.28715 62.627 3.57456 62.7612 2.88707C62.8954 2.19959 63.2267 1.5681 63.7132 1.07246C64.1996 0.576811 64.8194 0.239272 65.4942 0.102524C66.1689 -0.0342248 66.8683 0.0359594 67.5039 0.304201C68.1395 0.572443 68.6828 1.02669 69.065 1.60951C69.4472 2.19233 69.6512 2.87754 69.6512 3.57849C69.6499 4.51803 69.2831 5.41872 68.631 6.08308C67.9789 6.74744 67.0949 7.12125 66.1728 7.12255ZM66.1728 0.644792C65.6028 0.644792 65.0457 0.816994 64.5717 1.13962C64.0978 1.46225 63.7285 1.92082 63.5104 2.45733C63.2922 2.99384 63.2352 3.58421 63.3464 4.15376C63.4576 4.72332 63.732 5.2465 64.135 5.65712C64.5381 6.06775 65.0516 6.3474 65.6106 6.46069C66.1696 6.57398 66.749 6.51583 67.2756 6.2936C67.8022 6.07137 68.2523 5.69504 68.5689 5.21219C68.8856 4.72934 69.0546 4.16167 69.0546 3.58095C69.0476 2.80534 68.7415 2.06365 68.2022 1.51611C67.663 0.968568 66.9341 0.659128 66.1728 0.654636V0.644792Z" fill="#110151"/>
</g>
<defs>
<clipPath id="clip0_217_1787">
<rect width="139" height="67" fill="white"/>
</clipPath>
</defs>
</svg>
