<svg width="154" height="73" viewBox="0 0 154 73" fill="none" xmlns="http://www.w3.org/2000/svg">
<g clip-path="url(#clip0_1_167)">
<path d="M90.7881 36.5441V23.1846H96.5499C97.8547 23.1846 98.8924 23.5654 99.6631 24.3269C100.434 25.0885 100.825 26.1423 100.835 27.4885C100.835 28.8346 100.445 29.8885 99.6631 30.65C98.8817 31.4116 97.844 31.7924 96.5499 31.7924H93.5542V36.5441H90.7881ZM96.1948 25.6141H93.5248V29.3468H96.1948C96.6868 29.3662 97.1666 29.1899 97.5298 28.8561C97.7041 28.6759 97.8392 28.4612 97.9266 28.2258C98.0139 27.9904 98.0515 27.7393 98.0371 27.4885C98.0569 27.2608 98.0316 27.0315 97.9627 26.8137C97.8938 26.5959 97.7827 26.394 97.6358 26.2195C97.4889 26.045 97.309 25.9015 97.1066 25.7971C96.9042 25.6927 96.6833 25.6296 96.4565 25.6114C96.3676 25.6048 96.2784 25.6048 96.1895 25.6114L96.1948 25.6141Z" fill="white"/>
<path d="M105.77 27.1319C107.026 27.1319 107.939 27.5127 108.509 28.2742V27.3062H110.944V36.5415H108.509V35.5949C108.208 35.962 107.819 36.2469 107.38 36.4235C106.873 36.6382 106.328 36.745 105.778 36.7372C105.181 36.7553 104.587 36.6469 104.035 36.4191C103.483 36.1913 102.985 35.8493 102.574 35.4152C101.757 34.5464 101.348 33.3844 101.348 31.9292C101.348 30.474 101.757 29.312 102.574 28.4432C102.985 28.0121 103.483 27.6726 104.033 27.4467C104.584 27.2209 105.175 27.1136 105.77 27.1319ZM106.197 29.3629C105.893 29.3508 105.591 29.4062 105.311 29.5254C105.031 29.6445 104.781 29.8244 104.579 30.0521C104.152 30.5805 103.936 31.2496 103.973 31.9292C103.933 32.6092 104.149 33.2794 104.579 33.8063C104.999 34.236 105.57 34.4825 106.17 34.4926C106.769 34.5026 107.349 34.2754 107.783 33.8599C108.201 33.384 108.416 32.7616 108.381 32.1276V31.7173C108.412 31.0888 108.197 30.473 107.783 30.0012C107.58 29.7859 107.333 29.6174 107.06 29.5072C106.786 29.3971 106.491 29.3478 106.197 29.3629Z" fill="white"/>
<path d="M116.152 27.1318C117.254 27.1318 118.128 27.4 118.774 27.9363C119.096 28.204 119.36 28.5356 119.548 28.9103C119.736 29.285 119.846 29.6947 119.869 30.1137L117.29 30.2558C117.255 29.5077 116.863 29.1323 116.118 29.1323C115.418 29.1323 115.068 29.3942 115.068 29.918C115.063 30.045 115.098 30.1705 115.168 30.2764C115.238 30.3824 115.34 30.4634 115.458 30.5079C115.917 30.6788 116.386 30.8221 116.863 30.937C117.979 31.2337 118.78 31.5752 119.266 31.9613C119.512 32.1679 119.707 32.43 119.833 32.7264C119.96 33.0228 120.015 33.345 119.995 33.6668C120.014 34.0942 119.935 34.5203 119.762 34.9113C119.589 35.3023 119.328 35.6475 118.999 35.9193C118.336 36.4556 117.397 36.7399 116.227 36.7399C115.058 36.7399 114.131 36.4717 113.461 35.9622C113.124 35.6947 112.847 35.3581 112.649 34.9748C112.451 34.5915 112.336 34.1703 112.313 33.7392L114.911 33.5971C114.946 34.3586 115.391 34.7394 116.246 34.7394C116.544 34.7554 116.84 34.6776 117.092 34.5168C117.191 34.4481 117.271 34.3557 117.325 34.248C117.379 34.1402 117.406 34.0207 117.402 33.9001C117.41 33.7803 117.384 33.6607 117.327 33.555C117.27 33.4492 117.185 33.3616 117.082 33.3021C116.65 33.0984 116.197 32.9454 115.731 32.8462C115.049 32.6898 114.383 32.4745 113.739 32.2027C113.361 32.0212 113.04 31.7369 112.815 31.3821C112.601 30.9673 112.485 30.5085 112.476 30.0413C112.46 29.6335 112.542 29.2278 112.713 28.8579C112.885 28.488 113.142 28.1647 113.464 27.9149C114.106 27.3946 115.003 27.1336 116.152 27.1318Z" fill="white"/>
<path d="M126.806 29.5612H124.635L124.619 32.9882C124.606 33.1785 124.633 33.3695 124.699 33.5485C124.764 33.7275 124.868 33.8902 125.001 34.026C125.277 34.2719 125.637 34.3998 126.005 34.3826C126.274 34.372 126.541 34.3424 126.806 34.2941V36.6137C126.329 36.6843 125.847 36.7201 125.364 36.7209C124.296 36.7209 123.469 36.4528 122.884 35.9165C122.299 35.3802 122.011 34.6159 122.021 33.605L122.04 29.5505H120.369V27.306H122.059L122.075 24.2544H124.673L124.654 27.306H126.806V29.5612Z" fill="white"/>
<path d="M137.387 31.9346C137.412 32.5809 137.301 33.2251 137.062 33.8256C136.823 34.4261 136.461 34.9695 135.999 35.4206C135.531 35.8631 134.981 36.2078 134.38 36.4347C133.778 36.6617 133.138 36.7663 132.496 36.7426C131.192 36.7858 129.925 36.3097 128.969 35.4179C128.512 34.9643 128.155 34.4199 127.919 33.8197C127.684 33.2195 127.576 32.5765 127.602 31.9319C127.602 30.5018 128.058 29.3398 128.969 28.4459C129.924 27.5575 131.189 27.0826 132.491 27.1239C133.133 27.1002 133.773 27.2049 134.374 27.4318C134.976 27.6588 135.526 28.0035 135.994 28.4459C136.921 29.3147 137.386 30.4776 137.387 31.9346ZM134.133 30.0575C133.713 29.6216 133.138 29.3711 132.534 29.361C131.93 29.351 131.347 29.5822 130.913 30.0039L130.859 30.0575C130.455 30.5991 130.237 31.2577 130.237 31.9346C130.237 32.6115 130.455 33.2701 130.859 33.8117C131.294 34.2456 131.883 34.4892 132.496 34.4892C133.109 34.4892 133.698 34.2456 134.133 33.8117C134.537 33.2701 134.756 32.6115 134.756 31.9346C134.756 31.2577 134.537 30.5991 134.133 30.0575Z" fill="white"/>
<path d="M143.948 27.2202V29.7489C143.304 29.715 142.67 29.9223 142.17 30.3308C141.953 30.5233 141.782 30.7618 141.669 31.029C141.556 31.2962 141.503 31.5853 141.515 31.8754V36.5547H138.917V27.306H141.425V28.3599C141.896 27.6001 142.737 27.2202 143.948 27.2202Z" fill="white"/>
<path d="M153.64 31.7227V32.7577H147.325C147.317 33.2688 147.509 33.7627 147.859 34.1334C148.044 34.3054 148.261 34.4382 148.497 34.5239C148.734 34.6096 148.986 34.6464 149.237 34.6322C150.171 34.6322 150.734 34.2934 150.924 33.6158L153.538 33.7392C153.457 34.1788 153.288 34.5973 153.041 34.9689C152.793 35.3406 152.473 35.6576 152.099 35.9005C151.279 36.4684 150.302 36.7621 149.306 36.7399C147.873 36.7399 146.724 36.3054 145.857 35.4366C144.99 34.5678 144.557 33.4004 144.559 31.9345C144.559 30.4596 144.992 29.2932 145.857 28.4351C146.722 27.577 147.857 27.1426 149.261 27.1318C150.598 27.1318 151.666 27.5421 152.465 28.3627C153.264 29.1832 153.656 30.3032 153.64 31.7227ZM150.527 29.6498C150.356 29.4829 150.152 29.3538 149.929 29.2707C149.705 29.1875 149.467 29.1523 149.229 29.1671C148.737 29.1477 148.257 29.3241 147.894 29.6579C147.54 30.0252 147.34 30.5144 147.333 31.0255H151.034C151.042 30.5193 150.861 30.0285 150.527 29.6498Z" fill="white"/>
<path d="M97.169 38.7673C98.6161 38.7295 100.031 39.1967 101.174 40.0893C101.715 40.5199 102.165 41.0544 102.498 41.6617C102.831 42.269 103.04 42.9369 103.112 43.6262L102.028 43.7335C101.969 43.1625 101.797 42.6091 101.522 42.1058C101.247 41.6026 100.874 41.1595 100.426 40.8026C99.4895 40.0662 98.3262 39.6811 97.137 39.7138C95.5492 39.7138 94.2685 40.2376 93.2949 41.2852C92.3212 42.3328 91.8353 43.7737 91.837 45.6079C91.837 47.4528 92.3408 48.8991 93.3483 49.9467C94.2856 50.8407 95.5006 51.3839 96.7893 51.4849C98.0781 51.586 99.3623 51.2389 100.426 50.5017C101.297 49.8266 101.876 48.8418 102.044 47.7505L103.128 47.839C102.931 49.1786 102.224 50.3889 101.155 51.215C100.021 52.0593 98.6361 52.494 97.2251 52.4486C95.3401 52.4486 93.7933 51.8407 92.5846 50.6251C91.376 49.4095 90.7708 47.7371 90.769 45.6079C90.769 43.4627 91.3618 41.7894 92.5473 40.588C93.7327 39.3867 95.2733 38.7798 97.169 38.7673Z" fill="white"/>
<path d="M108.995 43.0901C109.73 43.072 110.457 43.2506 111.101 43.6076C111.678 43.9232 112.144 44.409 112.436 44.9994V43.251H113.397V52.2878H112.436V50.5556C112.145 51.1448 111.679 51.6285 111.101 51.9392C110.26 52.3755 109.304 52.5388 108.367 52.4067C107.429 52.2747 106.555 51.8537 105.865 51.2018C105.045 50.358 104.635 49.221 104.637 47.7909C104.637 46.3402 105.046 45.1951 105.865 44.3638C106.269 43.9438 106.757 43.6134 107.296 43.394C107.835 43.1746 108.413 43.0711 108.995 43.0901ZM109.083 43.9831C108.62 43.9657 108.159 44.0473 107.73 44.2226C107.301 44.3978 106.914 44.6626 106.594 44.9994C105.954 45.6787 105.633 46.602 105.633 47.7694C105.633 48.9368 105.954 49.8619 106.594 50.5448C106.912 50.8843 107.299 51.1515 107.728 51.3287C108.157 51.5058 108.619 51.5887 109.083 51.5719C109.525 51.5936 109.967 51.523 110.38 51.3647C110.794 51.2064 111.17 50.9638 111.486 50.6521C112.084 50.0407 112.383 49.1808 112.383 48.0724V47.4664C112.383 46.3598 112.086 45.5017 111.494 44.8921C111.177 44.5823 110.8 44.3417 110.387 44.1852C109.973 44.0288 109.532 43.96 109.091 43.9831H109.083Z" fill="white"/>
<path d="M120.623 43.09C121.201 43.0717 121.777 43.1751 122.313 43.3935C122.849 43.612 123.334 43.9406 123.736 44.3583C124.566 45.1896 124.98 46.3293 124.98 47.7693C124.98 49.2093 124.566 50.365 123.736 51.1963C123.054 51.846 122.188 52.2671 121.258 52.4016C120.328 52.5361 119.379 52.3773 118.543 51.9471C117.98 51.6435 117.521 51.1762 117.226 50.6064V56.8329H116.23V43.2508H117.173V45.0046C117.472 44.4191 117.937 43.9351 118.508 43.6129C119.154 43.2526 119.884 43.072 120.623 43.09ZM120.534 43.9829C120.093 43.9617 119.653 44.0315 119.239 44.1878C118.826 44.3441 118.449 44.5838 118.132 44.892C117.523 45.5034 117.218 46.3615 117.218 47.4663V48.0911C117.218 49.1976 117.518 50.0548 118.118 50.6627C118.436 50.9708 118.813 51.2105 119.226 51.3668C119.639 51.5231 120.08 51.5929 120.521 51.5717C120.979 51.5836 121.435 51.5009 121.861 51.3289C122.286 51.1569 122.671 50.8991 122.994 50.5715C123.645 49.9065 123.971 48.9778 123.971 47.7854C123.971 46.593 123.645 45.6589 122.994 44.9831C122.673 44.6569 122.29 44.4 121.867 44.228C121.444 44.056 120.991 43.9726 120.534 43.9829Z" fill="white"/>
<path d="M127.151 39.3035C127.226 39.1928 127.337 39.1118 127.465 39.0741C127.593 39.0365 127.73 39.0446 127.853 39.097C127.98 39.1337 128.096 39.2021 128.189 39.2959C128.283 39.3897 128.351 39.5058 128.387 39.6333C128.423 39.7575 128.423 39.8891 128.389 40.0136C128.354 40.1381 128.286 40.2506 128.192 40.3386C128.125 40.4089 128.045 40.4649 127.956 40.5036C127.867 40.5422 127.771 40.5626 127.674 40.5636C127.577 40.5646 127.481 40.5462 127.391 40.5094C127.301 40.4726 127.22 40.4181 127.151 40.3493C127.082 40.2804 127.028 40.1985 126.992 40.1083C126.955 40.0181 126.937 39.9215 126.938 39.8242C126.939 39.7268 126.959 39.6306 126.997 39.5412C127.036 39.4518 127.092 39.371 127.162 39.3035H127.151ZM128.166 43.2508V52.2876H127.17V43.2508H128.166Z" fill="white"/>
<path d="M133.943 51.4696C134.259 51.4589 134.573 51.4293 134.885 51.3811V52.2928C134.509 52.3545 134.127 52.3841 133.745 52.3813C133.407 52.4025 133.067 52.3523 132.749 52.2341C132.431 52.1159 132.141 51.9322 131.898 51.6948C131.456 51.2372 131.236 50.5552 131.238 49.6488L131.257 44.1302H129.551V43.256H131.257L131.276 40.0596H132.288L132.272 43.256H134.843V44.1302H132.266L132.229 49.4691C132.232 50.8028 132.804 51.4696 133.943 51.4696Z" fill="white"/>
<path d="M140.095 43.0901C140.83 43.072 141.557 43.2506 142.201 43.6076C142.778 43.9232 143.244 44.409 143.536 44.9994V43.251H144.497V52.2878H143.536V50.5555C143.245 51.1448 142.778 51.6284 142.201 51.9392C141.361 52.3724 140.409 52.5341 139.474 52.402C138.539 52.27 137.667 51.8508 136.979 51.2018C136.158 50.358 135.749 49.221 135.75 47.7909C135.75 46.3401 136.159 45.1951 136.979 44.3638C137.382 43.9459 137.867 43.6167 138.403 43.3974C138.94 43.1781 139.516 43.0735 140.095 43.0901ZM140.183 43.983C139.72 43.9657 139.259 44.0473 138.83 44.2225C138.401 44.3978 138.014 44.6625 137.694 44.9994C137.053 45.6787 136.733 46.602 136.733 47.7694C136.733 48.9368 137.053 49.8619 137.694 50.5448C138.012 50.8843 138.399 51.1515 138.828 51.3286C139.257 51.5058 139.719 51.5887 140.183 51.5719C140.625 51.5935 141.067 51.523 141.48 51.3647C141.894 51.2064 142.27 50.9638 142.586 50.6521C143.184 50.0407 143.483 49.1808 143.483 48.0724V47.4664C143.483 46.3598 143.186 45.5017 142.594 44.8921C142.277 44.5823 141.9 44.3417 141.487 44.1852C141.073 44.0288 140.632 43.9599 140.191 43.983H140.183Z" fill="white"/>
<path d="M148.329 38.4106V52.2877H147.333V38.4106H148.329Z" fill="white"/>
<path d="M59.0424 49.2656L59.0744 49.2522C61.4418 48.28 63.6207 46.8977 65.5118 45.1682C68.2095 42.916 70.3885 40.1027 71.8984 36.9224C74.5471 31.4284 75.1504 25.1637 73.5992 19.2617C72.8458 16.3356 71.5654 13.5727 69.8212 11.1098C69.1502 10.0877 68.3792 9.13543 67.5196 8.26734C64.2001 4.71865 59.9501 2.1838 55.259 0.954734C55.6755 1.22289 54.8318 0.702668 55.259 0.954734C54.5675 0.686579 55.6595 1.05663 54.976 0.788478C53.7398 0.614177 52.4875 0.380881 51.238 0.287027C48.1168 -0.0508493 45.0116 0.252167 41.8797 0.0456867C35.9496 -0.0508493 30.0169 0.0456867 24.0895 0.00278181C17.7776 0.217306 11.4684 0.112726 5.15387 0.163675H3.47978C3.0341 0.153346 2.59076 0.23131 2.1751 0.393113C1.75943 0.554917 1.37957 0.797389 1.05724 1.10668C0.734904 1.41596 0.476404 1.78601 0.296507 2.19566C0.11661 2.60531 0.018842 3.04655 0.00878906 3.49417L0.00878906 3.61216L0.241079 22.0881V22.2785C0.171659 23.5549 0.166319 24.8259 0.171659 26.1024V39.7783C0.209039 42.8648 0.171659 45.9459 0.171659 49.035C0.120929 52.875 1.43457 56.7767 3.27953 60.1045C4.41564 62.0971 5.81694 63.9249 7.44473 65.5373C8.44819 66.572 9.55192 67.5035 10.7395 68.3181C12.905 69.8686 15.3036 71.0609 17.8444 71.8497C22.5275 73.3246 26.9918 72.9223 31.8111 72.9813H41.0493C41.0493 69.7206 41.092 66.4517 41.0493 63.1883C36.0404 63.2151 31.0341 63.1883 26.0252 63.2151C24.9785 63.2201 23.9322 63.1699 22.8906 63.0649C22.7198 63.0483 22.5502 63.0197 22.3833 62.9791C20.7936 62.5959 19.2534 62.029 17.7936 61.2897C17.7162 61.2495 17.6388 61.2039 17.5613 61.1584C15.8567 60.1293 14.3367 58.8193 13.0651 57.2835C13.0063 57.2111 12.9476 57.136 12.8942 57.0609C12.3225 56.2604 11.8086 55.4198 11.3563 54.5456C10.6223 52.986 10.0962 51.3361 9.79165 49.6384C9.76494 49.5047 9.74621 49.3694 9.73558 49.2335C9.70354 48.7803 9.68485 48.3271 9.67417 47.8686C9.65815 36.362 9.67417 24.8554 9.65548 13.3462C9.65408 12.8993 9.74032 12.4566 9.9093 12.0432C10.0783 11.6298 10.3267 11.2538 10.6403 10.9368C10.9539 10.6199 11.3267 10.368 11.7372 10.1957C12.1478 10.0234 12.5881 9.93399 13.033 9.93258H13.049C25.2313 9.94331 37.4154 9.94331 49.6013 9.93258C52.1298 9.94599 54.6743 10.7987 56.8557 12.0537C58.2115 12.8562 59.446 13.8495 60.5216 15.0034C60.9327 15.4646 61.3226 15.9366 61.707 16.4219C61.7684 16.5024 61.8299 16.5855 61.8859 16.6713L62.0301 16.8966C63.7061 19.5586 64.5813 22.6499 64.5506 25.7993C64.5506 26.4322 64.5346 27.0624 64.5292 27.6764C64.4865 29.3444 63.9659 30.8594 63.309 32.3745C62.438 34.2036 61.2644 35.8711 59.838 37.3059C59.7541 37.391 59.6649 37.4707 59.571 37.5446C58.2045 38.7126 56.6832 39.6845 55.0507 40.4326" fill="white"/>
<path d="M20.7997 20.9004C20.7357 31.034 20.7997 41.1649 20.7704 51.2958C23.9397 51.4353 27.2558 51.5399 30.4171 51.2368C30.4209 51.2351 30.4244 51.2325 30.4271 51.2292C30.4299 51.226 30.4319 51.2222 30.4331 51.2181C30.385 44.3408 30.385 37.4581 30.4331 30.5701C37.7676 30.5889 45.1181 30.613 52.4472 30.5701" fill="white"/>
<path d="M48.1479 41.8433C40.8107 41.8245 28.1042 41.8004 20.7671 41.8433C20.7911 45.0612 20.7671 48.279 20.7671 51.4969C31.3162 51.5291 41.8601 51.4808 52.4039 51.521" fill="white"/>
<path d="M47.977 20.9266C40.6399 20.9052 28.1042 20.8837 20.7671 20.9266C20.7911 24.1445 20.7671 27.3624 20.7671 30.5802C31.3162 30.6097 41.8601 30.5641 52.4039 30.6044" fill="white"/>
<path d="M73.1659 6.40371C72.7272 6.40357 72.2964 6.28671 71.9173 6.06502C71.5382 5.84333 71.2243 5.52472 71.0076 5.14162C70.7909 4.75852 70.6792 4.3246 70.6837 3.88403C70.6883 3.44346 70.809 3.01196 71.0335 2.63345C71.258 2.25494 71.5784 1.94293 71.962 1.72917C72.3456 1.51542 72.7788 1.40754 73.2174 1.41654C73.656 1.42553 74.0844 1.55106 74.459 1.78036C74.8336 2.00966 75.141 2.33454 75.35 2.72193L74.5757 3.14294C74.4058 2.82834 74.1364 2.5796 73.81 2.43605C73.4836 2.2925 73.1189 2.26233 72.7735 2.35032C72.4281 2.43832 72.1218 2.63944 71.903 2.92189C71.6842 3.20435 71.5654 3.552 71.5654 3.90986C71.5654 4.26773 71.6842 4.61538 71.903 4.89783C72.1218 5.18028 72.4281 5.38141 72.7735 5.4694C73.1189 5.55739 73.4836 5.52723 73.81 5.38368C74.1364 5.24013 74.4058 4.99138 74.5757 4.67679L75.35 5.09779C75.1375 5.49346 74.8222 5.82387 74.4376 6.05384C74.053 6.2838 73.6135 6.40472 73.1659 6.40371Z" fill="white"/>
<path d="M73.1417 7.76048C72.3812 7.76048 71.6379 7.53401 71.0056 7.10971C70.3733 6.68541 69.8806 6.08233 69.5895 5.37675C69.2985 4.67116 69.2224 3.89476 69.3708 3.14571C69.5191 2.39666 69.8853 1.70862 70.423 1.16859C70.9607 0.628557 71.6458 0.26079 72.3916 0.111796C73.1374 -0.0371986 73.9105 0.0392708 74.613 0.331534C75.3156 0.623797 75.916 1.11873 76.3385 1.75374C76.761 2.38875 76.9865 3.13532 76.9865 3.89904C76.9851 4.92272 76.5795 5.90407 75.8588 6.62792C75.1381 7.35178 74.1609 7.75906 73.1417 7.76048ZM73.1417 0.702625C72.5117 0.702625 71.8958 0.890249 71.372 1.24177C70.8482 1.59329 70.4399 2.09292 70.1988 2.67748C69.9577 3.26204 69.8947 3.90527 70.0176 4.52583C70.1405 5.1464 70.4438 5.71642 70.8893 6.16382C71.3348 6.61123 71.9024 6.91591 72.5203 7.03935C73.1381 7.16279 73.7786 7.09943 74.3606 6.8573C74.9427 6.61517 75.4402 6.20513 75.7902 5.67904C76.1402 5.15296 76.327 4.53444 76.327 3.90172C76.3193 3.05665 75.9809 2.24855 75.3849 1.65197C74.7889 1.0554 73.9831 0.718246 73.1417 0.713351V0.702625Z" fill="white"/>
</g>
<defs>
<clipPath id="clip0_1_167">
<rect width="153.64" height="73" fill="white"/>
</clipPath>
</defs>
</svg>
