<svg width="68" height="67" viewBox="0 0 68 67" fill="none" xmlns="http://www.w3.org/2000/svg">
<path d="M53.4086 45.2155L53.4376 45.2032C55.5794 44.3109 57.5506 43.0422 59.2615 41.4549C61.7023 39.3878 63.6736 36.8057 65.0396 33.8868C67.4359 28.8444 67.9817 23.0946 66.5784 17.6777C65.8968 14.992 64.7383 12.4563 63.1603 10.1958C62.5533 9.25763 61.8557 8.38368 61.0781 7.58693C58.0749 4.32992 54.2298 2.00342 49.9857 0.875367C50.3625 1.12148 49.5992 0.644018 49.9857 0.875367C49.3601 0.629251 50.348 0.96889 49.7296 0.722775C48.6112 0.5628 47.4783 0.34868 46.3478 0.262539C43.524 -0.0475662 40.7147 0.230544 37.8812 0.0410353C32.5162 -0.0475662 27.1488 0.0410353 21.7862 0.00165687C16.0757 0.198549 10.3677 0.102564 4.65483 0.149326H3.14026C2.73705 0.139846 2.33595 0.211402 1.95989 0.359906C1.58383 0.508411 1.24017 0.730954 0.948549 1.01482C0.656927 1.29869 0.423058 1.63831 0.260302 2.0143C0.0975471 2.39028 0.00909507 2.79526 0 3.20608L0 3.31437L0.210156 20.2717V20.4465C0.147351 21.618 0.14252 22.7846 0.147351 23.9561V36.508C0.181169 39.3407 0.147351 42.1686 0.147351 45.0039C0.101455 48.5282 1.28992 52.1092 2.95909 55.1635C3.98695 56.9924 5.25472 58.6699 6.7274 60.1498C7.63526 61.0994 8.63381 61.9544 9.70824 62.702C11.6674 64.125 13.8374 65.2193 16.1361 65.9434C20.373 67.297 24.4119 66.9278 28.772 66.982H37.13C37.13 63.9892 37.1686 60.9891 37.13 57.9938C32.5983 58.0184 28.0691 57.9938 23.5375 58.0184C22.5904 58.023 21.6439 57.977 20.7016 57.8806C20.547 57.8654 20.3936 57.8391 20.2426 57.8019C18.8043 57.4501 17.4109 56.9298 16.0902 56.2513C16.0202 56.2144 15.9501 56.1726 15.8801 56.1307C14.3379 55.1862 12.9627 53.984 11.8122 52.5744C11.7591 52.5079 11.7059 52.439 11.6576 52.3701C11.1404 51.6354 10.6754 50.8639 10.2662 50.0615C9.60217 48.6301 9.12623 47.1158 8.8507 45.5576C8.82653 45.4349 8.80959 45.3108 8.79998 45.186C8.77099 44.7701 8.75408 44.3541 8.74442 43.9333C8.72992 33.3724 8.74442 22.8116 8.72751 12.2484C8.72624 11.8382 8.80427 11.4318 8.95714 11.0524C9.11002 10.673 9.33475 10.328 9.6185 10.037C9.90225 9.7461 10.2395 9.51496 10.6109 9.35681C10.9823 9.19866 11.3807 9.1166 11.7832 9.11531H11.7977C22.8192 9.12515 33.8423 9.12515 44.8671 9.11531C47.1546 9.12762 49.4567 9.91026 51.4302 11.0621C52.6569 11.7987 53.7737 12.7103 54.7468 13.7694C55.1188 14.1927 55.4715 14.6258 55.8193 15.0713C55.8749 15.1451 55.9305 15.2214 55.9812 15.3002L56.1116 15.5069C57.628 17.9501 58.4198 20.7874 58.3919 23.678C58.3919 24.2588 58.3774 24.8372 58.3726 25.4008C58.334 26.9316 57.8629 28.3222 57.2687 29.7127C56.4807 31.3915 55.4189 32.9219 54.1284 34.2388C54.0525 34.3168 53.9718 34.39 53.8869 34.4578C52.6505 35.5298 51.2742 36.4219 49.7973 37.1085V37.1085" fill="#110151"/>
<path d="M18.8101 19.1819C18.7521 28.4826 18.8101 37.7808 18.7835 47.0791C21.6508 47.207 24.651 47.303 27.511 47.0249C27.5145 47.0233 27.5176 47.0209 27.5201 47.0179C27.5226 47.015 27.5245 47.0115 27.5255 47.0077C27.482 40.6957 27.482 34.3787 27.5255 28.0568C34.1611 28.074 40.8112 28.0962 47.442 28.0568" fill="#110151"/>
<path d="M43.5521 38.4033C36.9141 38.3861 25.4183 38.364 18.7803 38.4033C18.802 41.3567 18.7803 44.3101 18.7803 47.2635C28.3243 47.293 37.8634 47.2487 47.4025 47.2856" fill="#110151"/>
<path d="M43.3975 19.2058C36.7595 19.1862 25.4183 19.1665 18.7803 19.2058C18.802 22.1592 18.7803 25.1126 18.7803 28.066C28.3243 28.0931 37.8634 28.0512 47.4025 28.0881" fill="#110151"/>
</svg>
